<?xml version="1.0" encoding="iso-8859-1"?>
<!-- Generator: Adobe Illustrator 19.0.0, SVG Export Plug-In . SVG Version: 6.00 Build 0)  -->
<svg version="1.1" id="Layer_1" xmlns="http://www.w3.org/2000/svg" xmlns:xlink="http://www.w3.org/1999/xlink" x="0px" y="0px"
	 viewBox="0 0 496 496" style="enable-background:new 0 0 496 496;" xml:space="preserve">
<g>
	<g>
		<g>
			<path style='fill:#fcc41c' d="M429.304,224v-16h23.544l-55.544-77.768L341.76,208h23.544v16h-56h-18.608h-13.392v-37.6
				c37.224-13.224,64-48.696,64-90.4c0-7.264-0.888-14.392-2.48-21.376l26.832,17.888c-0.168,1.152-0.352,2.296-0.352,3.488
				c0,13.232,10.768,24,24,24s24-10.768,24-24c0-3.416-0.736-6.648-2.032-9.592l47.064-41.184c3.304,1.712,7,2.776,10.968,2.776
				c13.232,0,24-10.768,24-24s-10.768-24-24-24s-24,10.768-24,24c0,3.416,0.736,6.648,2.032,9.592l-47.064,41.184
				c-3.304-1.712-7-2.776-10.968-2.776c-6.216,0-11.832,2.432-16.096,6.32l-33.4-22.264c0.912-2.528,1.496-5.216,1.496-8.056
				c0-13.232-10.768-24-24-24c-2.576,0-5.008,0.512-7.336,1.264C292.232,9,269.528,0,245.304,0c-52.936,0-96,43.064-96,96
				c0,41.704,26.776,77.176,64,90.4V224h-104V88h23.544L77.304,10.232L21.76,88h23.544v136h-6.032L2.696,352h34.608v144h264h8h144
				V352h34.608l-36.576-128H429.304z M469.304,16c4.416,0,8,3.584,8,8s-3.584,8-8,8c-4.416,0-8-3.584-8-8S464.888,16,469.304,16z
				 M389.304,88c4.416,0,8,3.584,8,8s-3.584,8-8,8c-4.416,0-8-3.584-8-8S384.888,88,389.304,88z M317.304,40c4.416,0,8,3.584,8,8
				s-3.584,8-8,8c-4.416,0-8-3.584-8-8S312.888,40,317.304,40z M165.304,96c0-44.112,35.888-80,80-80
				c19.232,0,37.344,6.752,51.808,19.128c-2.384,3.728-3.808,8.128-3.808,12.872c0,2.504,0.496,4.864,1.208,7.136
				C282.76,41.016,265.064,32,245.304,32c-35.288,0-64,28.712-64,64c0,35.288,28.712,64,64,64c35.288,0,64-28.712,64-64
				c0-9.464-2.12-18.416-5.816-26.504l1.504-1C308.6,70.672,312.784,72,317.304,72c1.424,0,2.808-0.184,4.16-0.424
				c2.536,7.88,3.84,16.056,3.84,24.424c0,44.112-35.888,80-80,80S165.304,140.112,165.304,96z M245.304,72
				c-13.232,0-24,10.768-24,24s10.768,24,24,24c13.232,0,24-10.768,24-24c0-1.192-0.184-2.336-0.352-3.488l21.008-14
				c2.128,5.424,3.344,11.312,3.344,17.488c0,26.472-21.528,48-48,48s-48-21.528-48-48s21.528-48,48-48
				c14.552,0,27.584,6.528,36.392,16.792L261.4,78.328C257.136,74.432,251.52,72,245.304,72z M253.304,96c0,4.416-3.584,8-8,8
				s-8-3.584-8-8s3.584-8,8-8S253.304,91.584,253.304,96z M261.304,190.552V224h-32v-33.448c5.216,0.88,10.536,1.448,16,1.448
				S256.088,191.432,261.304,190.552z M77.304,37.768L101.76,72h-8.456v152h-32V72h-8.456L77.304,37.768z M23.912,336l27.424-96
				h239.36l-27.424,96H23.912z M293.304,480h-240V352h222.032l17.968-62.88V480z M397.304,157.768L421.76,192h-8.456v32h-32v-32
				h-8.456L397.304,157.768z M437.304,480h-128V289.12L327.272,352h110.032V480z M339.336,336l-27.424-96h127.36l27.424,96H339.336z
				"/>
			<rect x="261.304" y="448" width="16" height="16"/>
			<rect x="229.304" y="448" width="16" height="16"/>
			<rect x="197.304" y="448" width="16" height="16"/>
			<rect x="261.304" y="416" width="16" height="16"/>
			<rect x="261.304" y="384" width="16" height="16"/>
			<rect x="229.304" y="416" width="16" height="16"/>
		</g>
	</g>
</g>
<g>
</g>
<g>
</g>
<g>
</g>
<g>
</g>
<g>
</g>
<g>
</g>
<g>
</g>
<g>
</g>
<g>
</g>
<g>
</g>
<g>
</g>
<g>
</g>
<g>
</g>
<g>
</g>
<g>
</g>
</svg>
