<svg height="512" viewBox="0 0 60 60" width="512" xmlns="http://www.w3.org/2000/svg">
    <g id="020---Watch-Stock-Market">
        <path style='fill:#fcc41c' id="Path"
            d="m10 22c.1971916-.000153.3899366-.0586028.554-.168l5.517-3.678 4.9 2.448c.7106815.3555575 1.5644461.2566385 2.175-.252l4.923-4.1 1.7 1.131c.7931411.5284605 1.8489927.4238379 2.523-.25l4.708-4.717v.586c0 .5522847.4477153 1 1 1s1-.4477153 1-1v-3c0-.55228475-.4477153-1-1-1h-3c-.5522847 0-1 .44771525-1 1 0 .5522847.4477153 1 1 1h.586l-4.713 4.713-1.7-1.131c-.7378422-.4867912-1.7069265-.4352744-2.389.127l-4.924 4.1-4.894-2.447c-.6424643-.319967-1.4068578-.2726928-2.005.124l-5.516 3.682c-.36665571.2444851-.53004275.7001723-.40227078 1.1219349.12777198.4217626.51657885.710164.95727078.7100651z" />
        <path style='fill:#fcc41c' id="Shape"
            d="m53.568 52.154c3.2411557-3.7241012 4.2759877-8.8823955 2.7220402-13.568467-1.5539475-4.6860716-5.4658894-8.2039669-10.2900402-9.253533v-24.332c-.0033061-2.76005315-2.2399468-4.99669388-5-5h-36c-2.76005315.00330612-4.99669388 2.23994685-5 5v36c.00330612 2.7600532 2.23994685 4.9966939 5 5h24.332c1.0495661 4.8241508 4.5674614 8.7360927 9.253533 10.2900402 4.6860715 1.5539475 9.8443658.5191155 13.568467-2.7220402l6.139 6.139c.3923789.3789722 1.0160848.3735524 1.4018186-.0121814s.3911536-1.0094397.0121814-1.4018186zm-40.568-13.154h-2v-10h2zm4 0h-2v-12h2zm2-10h2v10h-2zm4 2h2v8h-2zm8-4h2v6.221c-.766106.7872528-1.4373475 1.6615449-2 2.605zm5 14v-7.727c.9201566-.6642513 1.9303215-1.1939145 3-1.573v9.3zm-2-5.911v5.911h-2.819c.3703002-2.1945863 1.3467087-4.2419615 2.819-5.911zm3-4.719c-.6972869.3301303-1.3662126.7171039-2 1.157v-10.527h2zm-8 8.63h-2v-14h2zm2 4h11c.5522847 0 1-.4477153 1-1s-.4477153-1-1-1h-1v-9.819c1.6619598-.2996607 3.369722-.2265685 5 .214v11.605c0 1.6568542-1.3431458 3-3 3h-11.6c-.2601959-.9789549-.3946113-1.9870708-.4-3zm-26 1c-1.65685425 0-3-1.3431458-3-3v-36c0-1.65685425 1.34314575-3 3-3h36c1.6568542 0 3 1.34314575 3 3v24.051c-.332-.024-.662-.051-1-.051-1.3549452.0009-2.7024967.1996639-4 .59v-8.59c0-1.1045695-.8954305-2-2-2h-2c-1.1045695 0-2 .8954305-2 2v4h-2c0-1.1045695-.8954305-2-2-2h-2c-1.1045695 0-2 .8954305-2 2v4h-2c0-1.1045695-.8954305-2-2-2h-2c0-1.1045695-.8954305-2-2-2h-2c-1.1045695 0-2 .8954305-2 2h-2c-1.1045695 0-2 .8954305-2 2v10h-2v-33c0-.55228475-.44771525-1-1-1s-1 .44771525-1 1v33c0 1.1045695.8954305 2 2 2h22.16c-.1014969.6619356-.1549698 1.3303471-.16 2 0 .338.027.668.051 1zm27.1 4h10.9c2.7600532-.0033061 4.9966939-2.2399468 5-5v-10.9c4.8325189 2.2168579 7.6284351 7.3509989 6.8688072 12.6131907-.7596279 5.2621919-4.8934246 9.3959886-10.1556165 10.1556165-5.2621918.7596279-10.3963328-2.0362883-12.6131907-6.8688072z" />
    </g>
</svg>