<svg id="Layer_1" data-name="Layer 1" xmlns="http://www.w3.org/2000/svg" viewBox="0 0 100 100"><path d="M50,96.69q-16.54,0-33.1,0c-3.79,0-6.45-2-7.22-5.47a6.45,6.45,0,0,1-.13-1.46q0-18,0-36.05a6.65,6.65,0,0,1,4.38-6.44,1,1,0,0,0,.76-1.15,9.28,9.28,0,0,1,0-1.58,4.35,4.35,0,0,1,4.62-4.19,81.82,81.82,0,0,1,29.56,5.79,2.85,2.85,0,0,0,2.29,0,79.78,79.78,0,0,1,22.31-5.38c2.37-.21,4.76-.34,7.15-.4a4.23,4.23,0,0,1,4.67,4.42,2.85,2.85,0,0,0,1.86,3,6.06,6.06,0,0,1,3.33,5.71q0,18.18,0,36.37A6.69,6.69,0,0,1,84,96.65c-2.84.11-5.69,0-8.54,0Q62.74,96.71,50,96.69Zm1.7-4.34a3.71,3.71,0,0,0,.5-.12,85.75,85.75,0,0,1,28.39-5.3c1,0,1.32-.52,1.32-1.48q0-20.13,0-40.25c0-1.2-.31-1.53-1.5-1.47q-2.89.14-5.78.37a81.29,81.29,0,0,0-21.85,5,1.4,1.4,0,0,0-1.09,1.56q0,20.3,0,40.57Zm-3.4-.14a1.56,1.56,0,0,0,0-.26q0-20.82,0-41.64c0-.7-.34-.89-.86-1.09a83.55,83.55,0,0,0-27.4-5.5c-1.86-.06-2,.06-2,2V84.88c0,1.91.08,2,2,2a78.35,78.35,0,0,1,17.59,2.31C41.24,90.12,44.71,91.2,48.28,92.21ZM14.65,50.68A3.62,3.62,0,0,0,12.89,54q0,17.71,0,35.41a3.51,3.51,0,0,0,3.88,3.83H38.26c.29,0,.58,0,1,0-.16-.12-.21-.17-.27-.18A84.5,84.5,0,0,0,23,90.5c-1.36-.08-2.73-.14-4.1-.21-2.57-.14-4.23-2.06-4.23-4.94q0-16.59,0-33.19ZM60.82,92.9l0,.38h22c3,0,4.23-1.27,4.23-4.22V54.48a7.34,7.34,0,0,0,0-1,3.26,3.26,0,0,0-1.75-2.69V84.93a11.81,11.81,0,0,1-.09,1.57,4.36,4.36,0,0,1-4.15,3.79c-2.94.2-5.9.28-8.81.67C68.45,91.48,64.64,92.24,60.82,92.9Z"/><path d="M69.2,24.55c.85,2.55,1.68,5,2.5,7.46.54,1.62,0,2.51-1.64,2.79C63.7,35.87,57.35,37,51,37.93a15.19,15.19,0,0,1-4.57-.41c-5.44-.86-10.86-1.8-16.29-2.69-1.8-.3-2.35-1.15-1.79-2.87.81-2.45,1.64-4.9,2.49-7.46L23,21.89c0,.95,0,1.75,0,2.55a1.06,1.06,0,0,0,.53.64A5.09,5.09,0,0,1,26.38,30c0,1.12,0,2.25,0,3.37,0,1.28-.61,1.9-1.85,1.91-2.14,0-4.28,0-6.43,0a1.57,1.57,0,0,1-1.75-1.47,33.93,33.93,0,0,1,.08-5A4.53,4.53,0,0,1,19,25.17c.46-.25.71-.51.63-1a1.57,1.57,0,0,1,0-.53c.25-1.84.06-3.33-2.27-3.67-.43-.06-.95-.93-1-1.49-.15-.85.49-1.39,1.27-1.71L29.35,11.8c6.52-2.75,13-5.48,19.56-8.25a2.73,2.73,0,0,1,2.32,0q15.52,6.57,31.08,13.1c.83.35,1.5.8,1.48,1.81s-.77,1.47-1.66,1.76L69.77,24.3C69.61,24.36,69.46,24.44,69.2,24.55ZM68,31.67a41,41,0,0,1-1.52-4.77c-.54-2.88-2.4-4.35-5-5.26l-.19-.07A32.41,32.41,0,0,0,44.53,20a21.75,21.75,0,0,0-9.12,3.31,2.12,2.12,0,0,0-.87.86c-.87,2.46-1.68,4.94-2.51,7.44l.41.11c5,.84,10,1.7,15,2.51a12,12,0,0,0,3.31.26c2.78-.34,5.54-.86,8.31-1.32ZM22.79,18.26c3.18,1.06,6.06,2,9,3a1.49,1.49,0,0,0,1-.21c1.44-.79,2.81-1.73,4.3-2.41A29.1,29.1,0,0,1,48,16.23C54,16,60,16.57,65.22,19.81a5.56,5.56,0,0,0,5.81.53c1.89-.82,3.91-1.35,6-2.07-.31-.17-.42-.25-.54-.3q-13-5.47-26-10.92a2,2,0,0,0-1.36.08c-6.4,2.67-12.78,5.38-19.17,8.07ZM19.63,31.85H23c0-.79,0-1.52,0-2.24A1.52,1.52,0,0,0,21.3,28a1.53,1.53,0,0,0-1.66,1.61C19.61,30.35,19.63,31.05,19.63,31.85Z"/><path d="M56.34,76.05a1.74,1.74,0,0,1-1.88-1.44,1.7,1.7,0,0,1,1.36-2c2.13-.59,4.24-1.3,6.4-1.68,4.44-.8,8.92-1.42,13.39-2.11a7.38,7.38,0,0,1,1.15,0c1.19,0,1.91.54,2,1.53s-.54,1.77-1.77,1.92c-1.67.2-3.35.32-5,.51a82.23,82.23,0,0,0-14,2.89C57.41,75.84,56.79,76,56.34,76.05Z"/><path d="M56.43,82.58c-1.12-.08-1.88-.65-1.94-1.6a1.7,1.7,0,0,1,1.38-1.84,88.4,88.4,0,0,1,19.47-3.6c.39,0,.77-.08,1.15-.12,1.31-.13,2.23.5,2.31,1.57s-.66,1.74-2,1.87c-1.53.16-3.07.27-4.6.44a82.29,82.29,0,0,0-14.17,2.91C57.52,82.37,57,82.46,56.43,82.58Z"/><path d="M78.81,64.23c0,1-.69,1.65-1.86,1.77-1.53.16-3.07.27-4.61.43a85.61,85.61,0,0,0-14.09,2.85c-.54.16-1.08.29-1.63.41a1.64,1.64,0,0,1-2.13-1.13,1.66,1.66,0,0,1,1.27-2.08c2.94-.79,5.86-1.71,8.85-2.25,4-.72,8-1.15,12.08-1.67A1.77,1.77,0,0,1,78.81,64.23Z"/><path d="M23.11,62.49A92.09,92.09,0,0,1,44,66.18a1.73,1.73,0,1,1-.64,3.41,26.76,26.76,0,0,1-3.14-.8,91.6,91.6,0,0,0-17.08-2.91c-1.36-.11-2.06-.79-2-1.8A1.7,1.7,0,0,1,23.11,62.49Z"/><path d="M23.32,75.35A92,92,0,0,1,43,78.8l1.11.31a1.72,1.72,0,0,1,1.43,1.79,1.77,1.77,0,0,1-1.7,1.57,4,4,0,0,1-1.24-.16,91.67,91.67,0,0,0-17-3.35c-.8-.09-1.61-.11-2.41-.2-1.35-.15-2.07-.81-2-1.8S22.09,75.31,23.32,75.35Z"/><path d="M23.7,68.82a90,90,0,0,1,19.14,3.47,5,5,0,0,0,1.11.28c1,0,1.43.67,1.56,1.53a1.68,1.68,0,0,1-1.46,1.78,3.39,3.39,0,0,1-1.34-.1A92.9,92.9,0,0,0,26,72.43c-.88-.09-1.75-.14-2.62-.22-1.45-.14-2.2-.77-2.16-1.78S22.05,68.77,23.7,68.82Z"/><path d="M23.44,53.35c3.06.38,6.12.75,9.17,1.15a1.65,1.65,0,0,1,1.59,1.86,1.6,1.6,0,0,1-1.89,1.52c-2.09-.21-4.17-.52-6.26-.77-1-.11-1.95-.17-2.92-.28-1.37-.15-2.06-.8-2-1.81S22,53.38,23.44,53.35Z"/><path d="M23.86,48.09c1.5.16,3,.3,4.5.49a1.7,1.7,0,0,1,1.52,1.72,1.64,1.64,0,0,1-1.73,1.62c-1.81-.1-3.63-.26-5.44-.46a1.7,1.7,0,0,1-1.51-1.84A1.68,1.68,0,0,1,23,48.09c.28,0,.56,0,.84.06Z"/></svg>