<svg id="Layer_1" data-name="Layer 1" xmlns="http://www.w3.org/2000/svg" viewBox="0 0 100 100"><path d="M54.23,98.22H48c-1.11-.14-2.22-.26-3.33-.42A47,47,0,0,1,4.85,58.48c-.21-1.32-.36-2.64-.54-4V48.3c.14-1.11.25-2.23.42-3.34a46,46,0,0,1,17.4-30.25A45.28,45.28,0,0,1,57.48,5,45.21,45.21,0,0,1,87.77,22.36,45.54,45.54,0,0,1,97.5,57.79,45.06,45.06,0,0,1,86.31,82.23,46.07,46.07,0,0,1,58.19,97.68C56.87,97.89,55.55,98,54.23,98.22Zm-3.15-6.11A40.76,40.76,0,0,0,91.83,51.47c.18-22.29-18-40.6-40.62-40.74a40.69,40.69,0,1,0-.13,81.38Z"/><path d="M51.07,46.09c-5,0-10,0-15,0a3.07,3.07,0,0,1-2.87-4.61,3.21,3.21,0,0,1,3-1.54H65.55a8,8,0,0,1,1.1,0,3.06,3.06,0,0,1-.32,6.11c-2.13,0-4.27,0-6.4,0Z"/><path d="M51.22,56.73c5,0,10,0,15,0a3.06,3.06,0,0,1,3,4.25,2.81,2.81,0,0,1-2.07,1.75,7.06,7.06,0,0,1-1.45.14H36.54a6.7,6.7,0,0,1-1,0,3,3,0,0,1-2.71-3.3,3,3,0,0,1,3.05-2.81H51.22Z"/></svg>