<svg id="Layer_1" data-name="Layer 1" xmlns="http://www.w3.org/2000/svg" viewBox="0 0 100 100"><path d="M46.77,55H84.59c1.64,0,2.16.46,2,2.11-.17,2.39-.43,4.77-.73,7.14-.15,1.15-.65,1.48-1.83,1.5-.7,0-1.41,0-2.11,0a2.41,2.41,0,0,0-2.33,1.67c-.77,1.92-1.57,3.83-2.37,5.73A2.37,2.37,0,0,0,77.74,76c.54.55,1.09,1.08,1.62,1.64a1.55,1.55,0,0,1,.19,2.16,41.93,41.93,0,0,1-11,11.06,1.58,1.58,0,0,1-2.24-.21c-.55-.54-1.08-1.09-1.63-1.62a2.34,2.34,0,0,0-2.74-.45C60,89.4,58,90.22,56.07,91a2.36,2.36,0,0,0-1.61,2.26c0,.77,0,1.54,0,2.3a1.54,1.54,0,0,1-1.36,1.69,39,39,0,0,1-10.77.65c-1.62-.13-3.23-.4-4.84-.66C36.4,97.07,36,96.59,36,95.47c0-.7,0-1.4,0-2.11a2.42,2.42,0,0,0-1.7-2.4c-1.89-.76-3.78-1.54-5.65-2.34a2.42,2.42,0,0,0-2.9.49c-.53.5-1,1-1.56,1.55a1.59,1.59,0,0,1-2.24.21,41.82,41.82,0,0,1-11-11.06,1.55,1.55,0,0,1,.19-2.16c.53-.55,1.08-1.09,1.62-1.63a2.37,2.37,0,0,0,.48-2.82c-.8-1.91-1.6-3.82-2.38-5.74a2.4,2.4,0,0,0-2.42-1.67c-.73,0-1.47,0-2.2,0a1.5,1.5,0,0,1-1.63-1.31A40,40,0,0,1,4.1,51.61c.12-1,.3-2,.48-2.92a1.48,1.48,0,0,1,1.6-1.33H8.39a2.45,2.45,0,0,0,2.47-1.74c.75-1.86,1.52-3.72,2.31-5.56a2.47,2.47,0,0,0-.49-3c-.51-.53-1-1-1.56-1.56a1.56,1.56,0,0,1-.21-2.17A41.53,41.53,0,0,1,22,22.24a1.52,1.52,0,0,1,2.09.17c.55.52,1.08,1.08,1.63,1.61a2.4,2.4,0,0,0,2.89.51q2.82-1.19,5.65-2.34A2.42,2.42,0,0,0,36,19.71c0-.76,0-1.53,0-2.3a1.38,1.38,0,0,1,1.24-1.47c2.66-.3,5.32-.57,8-.77.9-.07,1.45.59,1.5,1.51,0,.25,0,.51,0,.77V55ZM14.16,34.12l.55.6a5.47,5.47,0,0,1,1.15,6.9c-.76,1.64-1.44,3.33-2.07,5a5.47,5.47,0,0,1-4.26,3.71,14.65,14.65,0,0,1-2.12.12,35,35,0,0,0,0,12.24H8.59a5.41,5.41,0,0,1,5.1,3.52c.78,2,1.6,3.89,2.41,5.83a5.29,5.29,0,0,1-1,6c-.29.33-.61.64-.9,1,1.64,2.71,6.47,7.5,8.79,8.68a8.88,8.88,0,0,1,.71-.85,5.38,5.38,0,0,1,6.28-1c1.77.8,3.56,1.54,5.38,2.24A5.43,5.43,0,0,1,39,92.24a14.35,14.35,0,0,1,.13,2.08c2.35.8,10,.79,12.24,0V93.17a5.39,5.39,0,0,1,3.48-5c2-.78,3.89-1.59,5.82-2.41a5.28,5.28,0,0,1,6,.94c.36.31.69.65,1,1A34.75,34.75,0,0,0,76.26,79l-.43-.48c-2.22-2.27-2.5-4.24-1.13-7.12.63-1.32,1.21-2.68,1.71-4.05,1.23-3.43,2.45-4.38,6.06-4.62a.93.93,0,0,0,.67-.54c.19-1.32.29-2.64.43-4H72.68A27.49,27.49,0,0,1,17.9,59.47a26.41,26.41,0,0,1,4.17-17.63C27.15,34.05,34.47,30,43.65,29.11V18.23l-4.51.47c0,.35,0,.57,0,.79-.05,3-1.3,4.72-4.11,5.76-1.7.62-3.37,1.35-5,2.1a5.35,5.35,0,0,1-6.27-1,4.76,4.76,0,0,1-.65-1A38.94,38.94,0,0,0,14.16,34.12Zm29.55-1.78A24.33,24.33,0,1,0,69.43,58.11H46.06c-2,0-2.35-.34-2.35-2.41V32.34Z"/><path d="M51.38,30.41V11.81c0-1.61.46-2.08,2-2.05a39.9,39.9,0,0,1,38.16,30,37.59,37.59,0,0,1,1.23,9.56c0,1.35-.54,1.9-1.92,1.9H53.3c-1.41,0-1.92-.54-1.92-2ZM89.62,48C88.86,27.85,71.81,13.18,54.49,13V48Z"/><path d="M98.39,21.77l1.15,2.88L91,28.05l-1.16-2.87Z"/><path d="M73.75,10.85l3.4-8.57L80,3.41C78.89,6.29,77.79,9.09,76.64,12Z"/><path d="M91.83,12l-6.41,6.39-2-1.95,6.46-6.47Z"/><path d="M38.5,72l1.21-2.75a13.89,13.89,0,0,0,18.71-8.51l2.88.88A16.74,16.74,0,0,1,38.5,72Z"/><path d="M29.86,63.31c-3.87-7.7-.29-19.44,10.32-22.82l.92,2.9A13.86,13.86,0,0,0,32.58,62.1Z"/><path d="M35,70.32l-3.4-3.48L34,65l2.82,2.83Z"/><path d="M69,43.47H66V41.29a5.31,5.31,0,0,1-3.89-4.94h3c.06.17.14.37.21.57a2,2,0,0,0,2.4,1.41,2,2,0,0,0,1.54-2.23,2,2,0,0,0-2-1.79,5.19,5.19,0,0,1-5.09-5.46C62.31,26.5,63.73,25,66,24.24V22.09h3v2.14c2.56,1.05,3.83,2.7,3.81,4.88H69.87c-.76-1.65-1.31-2-2.77-1.93a2,2,0,0,0-1.89,1.73,2,2,0,0,0,1.37,2.16,6.65,6.65,0,0,0,1.42.17,5.23,5.23,0,0,1,4.76,4.16,4.84,4.84,0,0,1-2.64,5.35A1.59,1.59,0,0,0,69,42.69,5.33,5.33,0,0,1,69,43.47Z"/></svg>