<svg id="Layer_1" data-name="Layer 1" xmlns="http://www.w3.org/2000/svg" viewBox="0 0 100 100">
    <path
        d="M37,99.09c-2.29-1.39-2.63-2.19-2.15-4.86.6-3.32,1.18-6.63,1.71-10a1.63,1.63,0,0,0-.49-1.2q-3.75-3.69-7.56-7.3a3.42,3.42,0,0,1-1.2-3.68,3.34,3.34,0,0,1,3.05-2.36c3.34-.45,6.67-1,10-1.4a2.24,2.24,0,0,0,2-1.38c1.45-3.08,3-6.09,4.54-9.15a3.33,3.33,0,0,1,6.21,0c1.5,3.06,3.08,6.08,4.52,9.16a2.14,2.14,0,0,0,1.93,1.33c3.47.46,6.93,1,10.39,1.49a3.27,3.27,0,0,1,1.8,5.69q-3.9,3.8-7.84,7.57a1.34,1.34,0,0,0-.44,1.41c.63,3.37,1.21,6.76,1.78,10.15.38,2.3-.09,3.19-2.26,4.46H61.28c-3.57-1.86-7.14-3.73-10.72-5.56a1.41,1.41,0,0,0-1.12,0c-3.59,1.82-7.16,3.68-10.73,5.54ZM50,59c-.27.5-.44.8-.59,1.11-1.64,3.27-3.29,6.54-4.9,9.82a2.18,2.18,0,0,1-1.71,1.35l-7.08,1L30.66,73l-.13.24a8.52,8.52,0,0,1,.74.57c2.66,2.56,5.31,5.15,8,7.69A2.28,2.28,0,0,1,40,83.76c-.48,2.69-.95,5.39-1.42,8.08-.22,1.25-.42,2.51-.66,3.92l1-.5c3.24-1.69,6.5-3.35,9.72-5.08a2.58,2.58,0,0,1,2.69,0c3.25,1.74,6.54,3.42,9.81,5.12.26.13.53.24.92.42-.7-4.07-1.36-8-2.06-11.82a2.37,2.37,0,0,1,.75-2.39c2.66-2.52,5.28-5.08,7.93-7.61a3.9,3.9,0,0,1,.9-.49l-.29-.34c-.22,0-.43-.12-.65-.15-3.3-.47-6.6-1-9.92-1.36-2-.19-3.31-.87-3.91-2.82a9.51,9.51,0,0,0-.75-1.54Z" />
    <path
        d="M1,63.9c.8-2.16,2.73-2.19,4.56-2.45,2.17-.31,4.34-.66,6.52-.91a1.42,1.42,0,0,0,1.24-.95c1.19-2.43,2.42-4.83,3.61-7.26a3,3,0,0,1,5.67,0c1.21,2.49,2.47,5,3.68,7.44a1.2,1.2,0,0,0,1.07.75c2.71.34,5.42.72,8.11,1.17a2.74,2.74,0,0,1,1.66.91,1.71,1.71,0,0,1,0,1.64,2.21,2.21,0,0,1-1.68.74c-2.81-.31-5.59-.91-8.41-1.13a4.12,4.12,0,0,1-3.85-2.91c-1-2.28-2.17-4.45-3.35-6.81-.19.33-.34.55-.46.78-1.2,2.39-2.44,4.75-3.57,7.17a2.62,2.62,0,0,1-2.26,1.61c-2.87.37-5.73.8-8.79,1.23.31.32.53.57.76.79,1.9,1.84,3.79,3.69,5.71,5.5A2.35,2.35,0,0,1,12,73.59c-.52,2.61-.94,5.25-1.38,7.88a7.89,7.89,0,0,0-.06,1l6.78-3.52a5.88,5.88,0,0,1,1.44-.72,3.32,3.32,0,0,1,2,0c3,1.45,5.89,3,8.81,4.55A1.62,1.62,0,0,1,30.42,85a1.65,1.65,0,0,1-2.38.61c-2.52-1.3-5-2.61-7.52-3.95a1.35,1.35,0,0,0-1.41,0c-2.44,1.3-4.91,2.55-7.35,3.85a3,3,0,0,1-4.61-3.3Q7.9,78.11,8.55,74a1.39,1.39,0,0,0-.33-1c-1.88-1.87-3.81-3.67-5.68-5.54A20.57,20.57,0,0,1,1,65.43Z" />
    <path
        d="M50.05,1.19A29.38,29.38,0,0,1,60.36,58.07c-.12,0-.25.08-.37.12-1.19.42-2.11.1-2.45-.87s.19-1.68,1.28-2.21c2.1-1,4.15-2.18,6.24-3.26a2.26,2.26,0,0,0,1.24-2.39A12.26,12.26,0,0,0,59.22,38a1.34,1.34,0,0,0-1.47.08,14.23,14.23,0,0,1-15.53,0A1.35,1.35,0,0,0,40.75,38a12.29,12.29,0,0,0-7.07,10.87,3,3,0,0,0,1.74,3.3c1.93,1,3.83,2,5.77,2.92.77.37,1.38.78,1.34,1.74,0,1.25-1.14,1.85-2.52,1.34A28.63,28.63,0,0,1,26,47.54,29.34,29.34,0,0,1,42.14,2.27,76.35,76.35,0,0,1,50,.91Zm19.5,46.46c8.2-8.76,9.48-24.75-.88-35.32a26,26,0,0,0-37.92.56c-10,11-8,26.71-.31,34.72a15.81,15.81,0,0,1,8.34-12.37A14.73,14.73,0,0,1,58,13.3a14.26,14.26,0,0,1,6,7.89c1.6,5.17.47,9.83-2.8,14.05A15.84,15.84,0,0,1,69.55,47.65ZM49.87,37.07A11.41,11.41,0,1,0,38.58,25.51,11.46,11.46,0,0,0,49.87,37.07Z" />
    <path
        d="M89.49,82.42c-.4-2.37-.76-4.5-1.13-6.62-.14-.85-.3-1.69-.46-2.53a2,2,0,0,1,.74-2c2-1.87,3.9-3.75,5.84-5.64.22-.21.42-.44.71-.76-2.9-.41-5.65-.87-8.42-1.18A3.09,3.09,0,0,1,84,61.79C83,59.5,81.8,57.28,80.67,55c-.13-.27-.29-.54-.51-.94-1.31,2.64-2.62,5.1-3.78,7.64a3.13,3.13,0,0,1-2.82,2c-2.88.32-5.74.77-8.6,1.2-1.34.2-2.2-.23-2.37-1.25s.47-1.83,1.86-2c2.74-.39,5.49-.76,8.22-1.19a1.52,1.52,0,0,0,1-.7c1.27-2.46,2.5-4.94,3.72-7.42a3,3,0,0,1,5.66,0c1.22,2.48,2.44,5,3.72,7.41a1.62,1.62,0,0,0,1,.74c2.86.47,5.72.88,8.58,1.3a2.81,2.81,0,0,1,2.48,2.08,2.94,2.94,0,0,1-.9,3.12c-2,2-4.1,3.92-6.11,5.92A1.48,1.48,0,0,0,91.45,74c.43,2.86.93,5.71,1.41,8.56a3,3,0,0,1-4.34,3.12c-2.51-1.31-5-2.6-7.51-3.94a1.53,1.53,0,0,0-1.67,0c-2.43,1.31-4.9,2.56-7.35,3.84a1.67,1.67,0,0,1-2.11-.17c-.9-.84-.65-2.09.57-2.74,1.88-1,3.78-2,5.67-3,1-.49,1.94-1,2.87-1.5a2.2,2.2,0,0,1,2.34,0c2.36,1.25,4.74,2.47,7.11,3.7Z" />
    <path
        d="M41.42,78.07c-1.22,0-1.93-.55-2-1.45A1.67,1.67,0,0,1,41,74.81c1.38-.2,2.77-.41,4.15-.58a1.59,1.59,0,0,0,1.43-1c.57-1.31,1.24-2.58,1.9-3.85a1.65,1.65,0,1,1,3,1.43c-.88,1.8-1.75,3.61-2.71,5.36a2.16,2.16,0,0,1-1.26,1C45.36,77.56,43.28,77.81,41.42,78.07Z" />
    </svg>