<svg id="Layer_1" data-name="Layer 1" xmlns="http://www.w3.org/2000/svg" viewBox="0 0 100 100"><path d="M54.3,96.8l-1-.34a4.62,4.62,0,0,1-3.18-4.33c0-.94,0-1.87,0-3a21,21,0,0,0-2.2,1.25c-2.7,2-5.68,2.5-9,2.46-11.72-.17-23.43-.07-35.15-.07-1.66,0-2.07-.41-2.07-2.1V82c0-1.3.51-1.8,1.83-1.8,1.84,0,3.69,0,5.64,0V79.09q0-26,0-52A6.15,6.15,0,0,1,11,22.47q8.52-8.46,17-17a6.18,6.18,0,0,1,4.65-1.9q17.75,0,35.51,0c3.7,0,5.89,2.16,5.89,5.87q0,16.53,0,33.05V43.8H88.41a4.73,4.73,0,0,1,5,5.07V91.39c0,3-1.13,4.48-4,5.29-.06,0-.09.08-.14.12Zm1.21-53.1V26.42c0-1.7.41-2.11,2.08-2.11h6c1.7,0,2.13.44,2.13,2.17V43.75h5.32c0-.32,0-.59,0-.86V9.38c0-2-.82-2.79-2.84-2.79H33c-.32,0-.64,0-1,0V7.81c0,4.46,0,8.93,0,13.39a5,5,0,0,1-5.32,5.27c-4.52,0-9,0-13.57,0h-1V80.23h1.14c9.23,0,18.45,0,27.68,0a8.77,8.77,0,0,1,5.22,1.41c1.22.82,2.55,1.47,3.91,2.25V76H20.53a6.52,6.52,0,0,1-1,0,1.48,1.48,0,0,1-1.3-1.52,1.42,1.42,0,0,1,1.4-1.39c.33,0,.66,0,1,0H50.05V67.81H20.43a5.47,5.47,0,0,1-.91,0,1.44,1.44,0,0,1-1.27-1.52,1.35,1.35,0,0,1,1.31-1.37,9.93,9.93,0,0,1,1.09,0H50V59.69a.89.89,0,0,0-.24-.06c-1.73,0-3.46,0-5.19,0-1.23,0-1.78-.56-1.78-1.79V32.69c0-1.19.52-1.73,1.73-1.74q3.36,0,6.74,0c1.24,0,1.72.55,1.72,1.83V44Zm35,26.59V49.17c0-1.85-.59-2.44-2.47-2.44H55.47c-1.87,0-2.45.58-2.45,2.44q0,17.94,0,35.88c0,.51.15,1,.14,1.52,0,1.6-.12,3.21-.14,4.81,0,1.82.54,2.37,2.38,2.37H88.1c1.9,0,2.44-.54,2.44-2.42ZM11.76,89.81h30V83.2h-30Zm2.72-66.32a.41.41,0,0,0,.16,0c4.06,0,8.13,0,12.19,0A2,2,0,0,0,29,21.29c0-3.94,0-7.89,0-11.83a3.34,3.34,0,0,0,0-.41ZM45.82,34V56.59h4.24V34Zm12.69,9.77h4.15V27.3H58.51ZM8.7,89.81V83.19h-4v6.62Zm36.15-1.09,3.9-2.22-3.9-2.22Z"/><path d="M52.9,17c-1-.21-1.68-.34-2.37-.51a1.46,1.46,0,1,1,.54-2.87q3.16.59,6.32,1.26a1.38,1.38,0,0,1,1.08,1.88q-1,3.12-2.1,6.19a1.38,1.38,0,0,1-1.78.85,1.43,1.43,0,0,1-1-1.8c.18-.73.46-1.43.78-2.39-.57.31-.94.5-1.31.72L24.2,37l-.56.32a1.51,1.51,0,0,1-2.22-.41,1.48,1.48,0,0,1,.74-2.13c2.88-1.68,5.78-3.33,8.66-5l21-12.14Z"/><path d="M40.35,48.64c0,3,0,6,0,8.93,0,1.58-.48,2-2.08,2H32c-1.29,0-1.86-.54-1.86-1.81q0-9.19,0-18.4c0-1.27.56-1.79,1.86-1.79h6.37c1.54,0,2,.45,2,2C40.36,42.63,40.35,45.64,40.35,48.64Zm-3-8.06H33.17v16h4.18Z"/><path d="M17.48,51.91c0-2,0-3.95,0-5.92,0-1.21.5-1.73,1.71-1.75,2.24,0,4.49,0,6.73,0,1.23,0,1.75.58,1.75,1.83,0,3.91,0,7.83,0,11.74a1.57,1.57,0,0,1-1.78,1.8H19.25c-1.23,0-1.76-.54-1.76-1.79C17.48,55.85,17.48,53.88,17.48,51.91Zm3-4.65v9.31h4.18V47.26Z"/><path d="M71.68,59.81H57.76c-1.46,0-2-.5-2-2q0-3.23,0-6.46c0-1.33.54-1.89,1.88-1.89H85.88c1.34,0,1.88.56,1.89,1.89q0,3.28,0,6.55c0,1.34-.56,1.87-1.89,1.87Zm13-7.25H58.85v4.25H84.73Z"/><path d="M78.34,81.4c0-2.67,0-5.34,0-8,0-1.32.5-1.85,1.78-1.86q2.91,0,5.82,0c1.27,0,1.82.57,1.83,1.86q0,8,0,16c0,1.35-.55,1.9-1.87,1.91H80.17c-1.3,0-1.83-.53-1.83-1.82C78.33,86.8,78.34,84.1,78.34,81.4Zm6.37,6.89V74.59H81.29v13.7Z"/><path d="M78.34,66c0-1,0-2.07,0-3.1a1.41,1.41,0,0,1,1.55-1.59c2.1,0,4.19,0,6.29,0a1.43,1.43,0,0,1,1.57,1.51c0,2.12,0,4.25,0,6.37a1.45,1.45,0,0,1-1.58,1.53c-2.09,0-4.19,0-6.28,0a1.46,1.46,0,0,1-1.55-1.63C78.33,68,78.34,67,78.34,66Zm3-1.74v3.42h3.4V64.23Z"/><path d="M60.52,61.27c1,0,2.07,0,3.1,0a1.42,1.42,0,0,1,1.6,1.55c0,2.09,0,4.19,0,6.28a1.44,1.44,0,0,1-1.51,1.58c-2.13,0-4.25,0-6.38,0a1.46,1.46,0,0,1-1.53-1.58c0-2.09,0-4.19,0-6.28a1.45,1.45,0,0,1,1.63-1.55C58.46,61.26,59.49,61.27,60.52,61.27Zm1.74,2.95H58.83v3.45h3.43Z"/><path d="M71.83,81c-1.06,0-2.12,0-3.19,0a1.42,1.42,0,0,1-1.57-1.58c0-2.07,0-4.13,0-6.2a1.46,1.46,0,0,1,1.56-1.63q3.14,0,6.28,0a1.48,1.48,0,0,1,1.59,1.61c0,2.07,0,4.13,0,6.2A1.47,1.47,0,0,1,74.84,81C73.84,81,72.83,81,71.83,81ZM70,78h3.44V74.58H70Z"/><path d="M71.81,61.27c1,0,2.07,0,3.1,0a1.45,1.45,0,0,1,1.59,1.58c0,2.07,0,4.13,0,6.2a1.51,1.51,0,0,1-1.66,1.64q-3.06,0-6.1,0A1.52,1.52,0,0,1,67.06,69c0-2,0-4,0-6,0-1.18.53-1.68,1.75-1.7C69.81,61.26,70.81,61.27,71.81,61.27Zm1.68,6.39v-3.4H70.05v3.4Z"/><path d="M65.22,76.3c0,1,0,2,0,3S64.71,81,63.63,81c-2.06,0-4.13,0-6.19,0a1.48,1.48,0,0,1-1.65-1.63q0-3,0-6.1a1.53,1.53,0,0,1,1.71-1.68c2,0,4,0,6,0,1.19,0,1.7.56,1.71,1.75C65.23,74.3,65.22,75.3,65.22,76.3Zm-6.39-1.72V78h3.43V74.58Z"/><path d="M65.22,86.55c0,1,0,2.06,0,3.09a1.46,1.46,0,0,1-1.52,1.65q-3.18.06-6.36,0a1.47,1.47,0,0,1-1.54-1.56c0-2.12,0-4.24,0-6.36a1.45,1.45,0,0,1,1.58-1.5q3.13,0,6.27,0a1.43,1.43,0,0,1,1.57,1.59C65.24,84.49,65.22,85.52,65.22,86.55Zm-3,1.74V84.85H58.81v3.44Z"/><path d="M71.87,81.87c1,0,1.94,0,2.91,0A1.52,1.52,0,0,1,76.5,83.6c0,2,0,4,0,6a1.53,1.53,0,0,1-1.69,1.7c-2,0-4,0-6.08,0a1.52,1.52,0,0,1-1.67-1.71q0-3,0-6.09a1.47,1.47,0,0,1,1.63-1.63C69.75,81.86,70.81,81.87,71.87,81.87Zm-1.82,2.95v3.44H73.5V84.82Z"/></svg>