<svg id="Layer_1" data-name="Layer 1" xmlns="http://www.w3.org/2000/svg" viewBox="0 0 100 100"><path d="M30.1,2.2a3.25,3.25,0,0,1,2.16,3H71.08c2.44,0,3.15.49,4,2.77,1.67,4.59,3.31,9.17,5,13.75a4.06,4.06,0,0,1,0,3c-1.74,4.72-3.44,9.45-5.15,14.17a3.05,3.05,0,0,1-3.38,2.31H32.32c-.07.3-.14.56-.2.81a2.7,2.7,0,0,1-2.42,2.15,28.08,28.08,0,0,1-3.18.06A2.93,2.93,0,0,1,23.39,41V23.84c0-1.76,0-3.52,0-5.28,0-.36,0-.83.19-1a2,2,0,0,1,1.31-.72,2,2,0,0,1,1.16.91,2.19,2.19,0,0,1,.13,1.16V41.33h3.17V5H26.19V7.45c0,1.67,0,3.34,0,5a1.4,1.4,0,1,1-2.78,0c0-2.45,0-4.91,0-7.37A3.1,3.1,0,0,1,25.54,2.2Zm2.19,36.18c.25,0,.43,0,.6,0q19.26,0,38.51,0a.88.88,0,0,0,1-.71c1.68-4.66,3.39-9.32,5.06-14a1.9,1.9,0,0,0,0-1.2C75.76,18,74.08,13.44,72.46,8.88A1.14,1.14,0,0,0,71.18,8q-19,0-38,0c-.29,0-.59,0-.93,0Z"/><path d="M83,49c-5,2.63-9.91,5.25-14.85,7.9a1,1,0,0,0-.41.75A4.41,4.41,0,0,1,59,58.74a1.24,1.24,0,0,0-.72-.75q-6.7-1.82-13.43-3.53a1.12,1.12,0,0,0-1,.3,4.35,4.35,0,0,1-5.85.66,1,1,0,0,0-1.2,0Q29.93,59.09,23,62.75A1.19,1.19,0,0,0,22.22,64a4.39,4.39,0,0,1-8.7.76,4.35,4.35,0,0,1,3.14-5,4.05,4.05,0,0,1,3.64.62,1,1,0,0,0,1.28.06Q28.51,56.68,35.47,53a1.09,1.09,0,0,0,.72-1.15,4.38,4.38,0,0,1,8.65-1,1.05,1.05,0,0,0,.91.93q6.6,1.71,13.16,3.49A1,1,0,0,0,60.08,55a4.38,4.38,0,0,1,5.86-.64,1.17,1.17,0,0,0,1,.05c4.67-2.44,9.32-4.92,14-7.38a1.19,1.19,0,0,0,.76-1.23,4.41,4.41,0,0,1,4.08-4.36,4.51,4.51,0,0,1,4.59,3.38A4.4,4.4,0,0,1,87.44,50,4.46,4.46,0,0,1,83,49ZM19.45,63.9a1.61,1.61,0,0,0-1.63-1.6A1.59,1.59,0,0,0,16.23,64a1.62,1.62,0,0,0,1.65,1.56A1.66,1.66,0,0,0,19.45,63.9Zm45.48-6a1.6,1.6,0,1,0-3.2-.09,1.6,1.6,0,1,0,3.2.09ZM86.12,44.21A1.61,1.61,0,1,0,86,47.42a1.61,1.61,0,0,0,.08-3.21ZM42.18,51.83a1.6,1.6,0,1,0-1.58,1.63A1.56,1.56,0,0,0,42.18,51.83Z"/><path d="M92.81,56.32H79.38V92.69H92.8V64.37a4.16,4.16,0,0,1,.13-1.17,1.21,1.21,0,0,1,1.31-.91,1.22,1.22,0,0,1,1.26,1,4.11,4.11,0,0,1,.1,1q0,13.94,0,27.87c0,2.27-1.08,3.34-3.34,3.34q-6.29,0-12.57,0a2.86,2.86,0,0,1-3.13-3.09V56.58a2.82,2.82,0,0,1,2.88-3.08q6.65-.09,13.3,0a2.79,2.79,0,0,1,2.85,2.92,12.27,12.27,0,0,1,0,1.82,1.38,1.38,0,0,1-2.75,0C92.76,57.63,92.81,57,92.81,56.32Z"/><path d="M31.05,77.43V63c0-2.33,1.07-3.42,3.37-3.43H46.8c2.2,0,3.3,1.13,3.3,3.31q0,14.66,0,29.31c0,2.2-1.1,3.31-3.27,3.31q-6.28,0-12.56,0a2.9,2.9,0,0,1-3.22-3.2C31,87.32,31.05,82.37,31.05,77.43Zm2.88-15.1V92.67H47.24V62.33Z"/><path d="M53.8,80.52V68.86c0-2.15,1.11-3.28,3.23-3.28q6.33,0,12.66,0a2.87,2.87,0,0,1,3.16,3.15q0,11.8,0,23.59a2.88,2.88,0,0,1-3.18,3.14q-6.37,0-12.75,0a2.86,2.86,0,0,1-3.11-3.11C53.79,88.41,53.8,84.46,53.8,80.52Zm2.86-12.17V92.68H70V68.35Z"/><path d="M27.35,83.54v8.74a2.89,2.89,0,0,1-3.22,3.18q-6.33,0-12.65,0a2.86,2.86,0,0,1-3.17-3.14q0-8.79,0-17.57a2.87,2.87,0,0,1,3.18-3.14H24.23a2.86,2.86,0,0,1,3.11,3.1Q27.36,79.13,27.35,83.54Zm-2.81-9.15H11.18v18.3H24.54Z"/><path d="M65.42,23.21c0,1.94,0,3.89,0,5.83a2.84,2.84,0,0,1-3,3.05c-1,0-2,0-3,0a2.73,2.73,0,0,1-2.8-2.74c-.07-1.46,0-2.91,0-4.37,0-2.46,0-4.91,0-7.37,0-2.25,1.12-3.35,3.35-3.35.82,0,1.64,0,2.45,0a2.89,2.89,0,0,1,3,3.05C65.43,19.27,65.42,21.24,65.42,23.21Zm-2.77,6.11c0-4,0-7.92,0-11.83a.64.64,0,0,0-.41-.45c-.92,0-1.85,0-2.77,0v12.3Z"/><path d="M47.31,26.06v4.4a1.43,1.43,0,0,1-1.07,1.59,1.39,1.39,0,0,1-1.72-1.48c0-1,0-2,0-3,0-3.8,0-7.59,0-11.38,0-1.49.47-1.94,2-1.94,1.27,0,2.55,0,3.82,0a2.88,2.88,0,0,1,3,2.94c0,2,0,3.95,0,5.92a2.85,2.85,0,0,1-3.1,2.95C49.32,26.07,48.38,26.06,47.31,26.06Zm3.2-9c-1,0-1.83,0-2.7,0-.17,0-.47.25-.47.39,0,1.95,0,3.9,0,5.86h3.19Z"/><path d="M41.25,23.14c0,2.42,0,4.85,0,7.27,0,1.11-.47,1.66-1.35,1.67s-1.41-.59-1.41-1.73V16c0-1.35,1-2.12,2-1.58A1.53,1.53,0,0,1,41.25,16C41.24,18.35,41.25,20.75,41.25,23.14Z"/></svg>