<svg id="Layer_1" data-name="Layer 1" xmlns="http://www.w3.org/2000/svg" viewBox="0 0 100 100"><path d="M42.24,97.05A2.8,2.8,0,0,1,41,95.16c-.58-2.48-1.22-4.94-1.82-7.41a1.25,1.25,0,0,0-.86-1c-1.47-.55-2.93-1.16-4.36-1.81a1.18,1.18,0,0,0-1.24.07c-2.27,1.4-4.56,2.76-6.86,4.13a1.77,1.77,0,0,1-2.66-.34Q17.81,83.41,12.44,78a1.77,1.77,0,0,1-.32-2.66c1.36-2.29,2.73-4.59,4.12-6.86a1.16,1.16,0,0,0,.06-1.24c-.65-1.43-1.19-2.91-1.85-4.34a1.62,1.62,0,0,0-.9-.83c-2.45-.66-4.93-1.26-7.39-1.86-1.69-.41-2-.78-2-2.49V42.81c0-1.32.34-1.77,1.64-2.11,2.55-.65,5.1-1.3,7.66-1.9a1.34,1.34,0,0,0,1-1c.55-1.44,1.13-2.87,1.78-4.27a1.18,1.18,0,0,0-.08-1.24c-1.37-2.25-2.72-4.51-4.07-6.78-.75-1.25-.68-1.76.35-2.8,1.35-1.35,2.69-2.72,4.06-4a1.4,1.4,0,1,1,1.9,2l-3.75,3.74c1.44,2.41,2.83,4.79,4.29,7.13a2.44,2.44,0,0,1,.11,2.55c-.81,1.76-1.56,3.55-2.22,5.37a2.59,2.59,0,0,1-2,1.82c-2.44.56-4.87,1.22-7.31,1.79a.73.73,0,0,0-.67.86q0,6.47,0,12.93a.73.73,0,0,0,.68.85c2.44.58,4.87,1.23,7.31,1.8a2.57,2.57,0,0,1,2,1.83q1,2.68,2.18,5.28A2.59,2.59,0,0,1,19,69.37c-1.45,2.31-2.82,4.66-4.19,6.95L24.91,86.46c2.3-1.38,4.68-2.76,7-4.22a2.51,2.51,0,0,1,2.64-.11c1.72.8,3.49,1.53,5.27,2.18a2.57,2.57,0,0,1,1.85,2c.56,2.44,1.23,4.87,1.8,7.31.13.58.38.71.92.71,4.28,0,8.56,0,12.84,0,.58,0,.77-.19.9-.74.57-2.44,1.23-4.87,1.79-7.31a2.51,2.51,0,0,1,1.79-2c1.87-.69,3.71-1.48,5.53-2.3a2.22,2.22,0,0,1,2.23.08c2.41,1.47,4.83,2.91,7.2,4.32L86.83,76.29C85.43,74,84,71.56,82.55,69.18a2.31,2.31,0,0,1-.09-2.39c.81-1.79,1.57-3.61,2.25-5.45a2.53,2.53,0,0,1,2-1.79c2.42-.56,4.81-1.22,7.23-1.76.7-.16.84-.47.83-1.11q0-6.28,0-12.56c0-.62-.12-.9-.78-1-2.42-.55-4.81-1.21-7.23-1.77a2.56,2.56,0,0,1-2-1.84C84,37.61,83.25,35.8,82.44,34a2.25,2.25,0,0,1,.09-2.31c1.46-2.38,2.88-4.78,4.26-7.09L76.61,14.44c-2.14,1.28-4.44,2.62-6.69,4a2.77,2.77,0,0,1-3,.15,47,47,0,0,0-5.2-2.14A2.44,2.44,0,0,1,60,14.6c-.59-2.47-1.24-4.93-1.82-7.41a.73.73,0,0,0-.85-.68q-6.47,0-12.93,0c-.59,0-.75.23-.88.76-.57,2.41-1.22,4.81-1.78,7.23a2.59,2.59,0,0,1-1.82,2c-1.87.69-3.7,1.48-5.53,2.29a2.2,2.2,0,0,1-2.23-.1c-2.4-1.46-4.82-2.9-7.37-4.43-.43.47-.82,1-1.28,1.42a1.34,1.34,0,0,1-2,0,1.38,1.38,0,0,1,.08-2c.53-.58,1.1-1.13,1.66-1.68,1-1,1.52-1,2.66-.35,2.22,1.32,4.44,2.62,6.62,4a1.58,1.58,0,0,0,1.73.1c1.28-.61,2.6-1.14,3.93-1.63A1.45,1.45,0,0,0,39.19,13c.6-2.57,1.27-5.11,1.92-7.66a1.72,1.72,0,0,1,2-1.57H58.49a1.72,1.72,0,0,1,2,1.54c.66,2.58,1.32,5.16,1.94,7.75a1.33,1.33,0,0,0,.94,1.06c1.45.54,2.87,1.14,4.28,1.77a1.16,1.16,0,0,0,1.24-.05c2.27-1.4,4.57-2.76,6.86-4.13a1.77,1.77,0,0,1,2.66.32q5.39,5.37,10.76,10.76a1.77,1.77,0,0,1,.33,2.66q-2,3.44-4.12,6.86a1.14,1.14,0,0,0-.07,1.24c.64,1.4,1.22,2.83,1.77,4.27a1.33,1.33,0,0,0,1,.95c2.51.59,5,1.25,7.5,1.84a2.73,2.73,0,0,1,1.81,1.23V59a7.49,7.49,0,0,1-1.82,1.19c-2.47.7-5,1.29-7.48,1.88a1.36,1.36,0,0,0-1.06,1c-.54,1.44-1.13,2.87-1.77,4.27a1.18,1.18,0,0,0,.06,1.24c1.38,2.25,2.73,4.52,4.08,6.79.74,1.25.68,1.77-.34,2.8L78.48,88.72c-1,1-1.55,1.09-2.8.35-2.27-1.36-4.53-2.7-6.78-4.08a1.14,1.14,0,0,0-1.24-.06c-1.4.64-2.83,1.23-4.27,1.77a1.35,1.35,0,0,0-1,1c-.58,2.48-1.23,4.93-1.81,7.41a2.77,2.77,0,0,1-1.25,1.89Z"/><path d="M67.32,30a15.51,15.51,0,0,1-3.53,5.18.86.86,0,0,0-.14,1.22,9.86,9.86,0,0,1,.52,10.28s0,.11,0,.28A30.46,30.46,0,0,1,77,49.81a23.71,23.71,0,0,0-1-6.76c-.2-.7-.46-1.38-.68-2.07a1.38,1.38,0,1,1,2.59-.91A28.33,28.33,0,0,1,79.6,54,28.29,28.29,0,0,1,67.89,73.88c-17.06,12.57-41.72,2.8-45.63-18A29,29,0,0,1,74.52,33.67c.62.87.57,1.65-.12,2.16s-1.46.26-2.11-.52C71.23,34,70.15,32.75,69,31.51A23,23,0,0,0,67.32,30ZM42.12,62.19c-.47.62-1.07,1.45-1.71,2.25a3.16,3.16,0,0,1-4.86.33c-.85-.82-1.7-1.65-2.51-2.51a5.91,5.91,0,0,1-1.29-6.49,1.8,1.8,0,0,0-.16-1.92,1.3,1.3,0,0,1,.39-2,1.38,1.38,0,0,1,1.91.47,3.83,3.83,0,0,1,.55,4.1,3.44,3.44,0,0,0,.83,4.15c.62.62,1.27,1.21,1.86,1.87s.9.62,1.4-.08c1.1-1.55,2.31-3,3.41-4.6a8,8,0,0,1,3.67-3.14c.26-.11.62-.43.62-.65s-.35-.51-.6-.67a10.32,10.32,0,0,1-4.75-6.51,15.56,15.56,0,0,1,0-5,13.45,13.45,0,0,1,3.61-8.33,2.45,2.45,0,0,0,.62-1.54,7.53,7.53,0,0,1,2.52-5.82c.6-.56,1.16-1.18,1.9-1.93A26.33,26.33,0,0,0,32.06,32a23.65,23.65,0,0,0-6.17,10.61,29.2,29.2,0,0,0,3.74-1.21,2,2,0,0,1,2.22.26,2.07,2.07,0,0,1,.63,2.22A23,23,0,0,0,32,46.7c-.09,1-.57,1.56-1.42,1.55s-1.34-.56-1.34-1.58c0-.68.05-1.36.08-2-1.35.23-2.63.43-3.89.7a1,1,0,0,0-.53.66A25.85,25.85,0,0,0,28.41,64.2a25.09,25.09,0,0,0,5.76,6.54c.55-.41,1-.8,1.57-1.16A5,5,0,0,1,40,68.65c1.41.36,2.83.67,4.22,1.08a5,5,0,0,1,3.65,4.8c0,.63,0,1.27,0,2.13h4.32a.52.52,0,0,0,.31-.14C54,75,55.87,73.7,55.9,71.15a3.82,3.82,0,0,1,2.75-3.51c.33-.13.69-.23,1-.36.57-.22.6-.53.14-.92q-1.26-1.08-2.52-2.19l-.06,0c-1.57.75-2.46,1.81-2.14,3.73.16.91-.51,1.45-1.46,1.46q-2.82,0-5.64,0a1.39,1.39,0,0,1-1.53-1.53c0-.61,0-1.22,0-1.82a1.19,1.19,0,0,0-.4-.71C44.77,64.27,43.47,63.26,42.12,62.19ZM48,31.46c1.87,0,3.72,0,5.56,0A1.41,1.41,0,0,1,55.14,33a11.44,11.44,0,0,1,0,1.55,1.05,1.05,0,0,0,.66,1.13,9.56,9.56,0,0,1,4,4A1.4,1.4,0,0,1,59.08,42c-1.59.82-3.19,1.61-4.79,2.4a1.4,1.4,0,0,1-2.11-.54,1.52,1.52,0,0,0-2-.68,1.47,1.47,0,0,0-.9,1.78c.17.93.82,1.14,1.67,1.19a10.1,10.1,0,0,1,9,5.79c.12.23.33.55.51.56,1.59.09,2.74,1.06,4,1.87a2.55,2.55,0,0,0,2.67.21,6,6,0,0,1,6,.47c1,.62,2,1.2,3.13,1.87.2-1.14.34-2.16.55-3.16a1,1,0,0,0-.69-1.25,28.08,28.08,0,0,0-12.48-2.8c-2.33,0-3.39-1.89-2.24-3.93a9.26,9.26,0,0,0,.8-1.72,7.19,7.19,0,0,0-.93-6.17,3.47,3.47,0,0,1,.52-4.7c.33-.35.68-.69,1-1.06a10.38,10.38,0,0,0,2.08-3.76,24.77,24.77,0,0,0-11-4,1.29,1.29,0,0,0-.88.3q-2,1.92-3.93,3.92A3.84,3.84,0,0,0,48,31.46Zm9.22,44.4A26.11,26.11,0,0,0,75.47,59.59c-1.48-.88-2.84-1.72-4.24-2.51A3,3,0,0,0,68.42,57a5.5,5.5,0,0,1-5.83-.6c-.48-.33-1-.63-1.6-1a10.4,10.4,0,0,1-1.37,5.94.89.89,0,0,0,.14,1.27c.6.56,1.2,1.11,1.83,1.63a3.22,3.22,0,0,1-.92,5.66l-1,.35a1.39,1.39,0,0,0-1,1.34A8,8,0,0,1,57.2,75.86ZM45,60.77a6,6,0,0,0,3,2.37,1.76,1.76,0,0,1,1.29,1.94c0,.5,0,1,0,1.5h3a4.23,4.23,0,0,0,0-.77,2.48,2.48,0,0,1,1.76-2.93,7.25,7.25,0,0,0,4-8.1,7.41,7.41,0,0,0-6.78-5.87,8,8,0,0,1-1.89-.26A4,4,0,0,1,46.52,45a4,4,0,0,1,2.06-4.07,4.16,4.16,0,0,1,4.71.14c.25.15.63.37.84.29.85-.35,1.67-.81,2.54-1.25a6.49,6.49,0,0,0-3-2.36,1.75,1.75,0,0,1-1.29-1.93c0-.5,0-1,0-1.51h-3a4.33,4.33,0,0,0,0,.78A2.49,2.49,0,0,1,47.51,38a6.84,6.84,0,0,0-4.11,6.65,6.83,6.83,0,0,0,4.14,6.54,13.79,13.79,0,0,0,3.77.84,4,4,0,0,1,3.57,2.92,4.09,4.09,0,0,1-1.26,4.61,3.69,3.69,0,0,1-4.55.64,2.57,2.57,0,0,0-3.15.11C45.64,60.44,45.34,60.58,45,60.77ZM36.57,72.5a25.36,25.36,0,0,0,8.53,3.56c.25-2.66-.26-3.37-2.75-4-.8-.19-1.6-.35-2.37-.6A3,3,0,0,0,36.57,72.5ZM48.35,56.17l.43-.47a11.79,11.79,0,0,0,.82,1.53,1.41,1.41,0,0,0,1.86.44,1.46,1.46,0,0,0,.83-1.74,1.31,1.31,0,0,0-1.38-1.17c-.6,0-1.2-.09-1.8-.14Z"/></svg>