<svg id="Layer_1" data-name="Layer 1" xmlns="http://www.w3.org/2000/svg" viewBox="0 0 100 100"><path d="M16.14,98.9l-1-.39a5.78,5.78,0,0,1-3.82-4.63,24.25,24.25,0,0,1-.13-4,1.36,1.36,0,0,1,1.43-1.37,1.33,1.33,0,0,1,1.43,1.36c.07.92,0,1.84.05,2.77A3.21,3.21,0,0,0,17.58,96c1.88,0,3.77,0,5.65,0a3.31,3.31,0,0,0,.39-.08v-5.3c0-1.53.46-2.24,1.45-2.25s1.45.7,1.45,2.23c0,1.75,0,3.5,0,5.32H73.45V94.6c0-1.53,0-3.06,0-4.58a1.45,1.45,0,1,1,2.89,0c0,2,0,3.94,0,6,2.28,0,4.47.1,6.65,0a3,3,0,0,0,2.81-3.09c0-5.06.08-10.13-.08-15.2-.14-4.38-3.71-8.55-8.19-9.93-1.58-.49-3.16-1-4.76-1.37a2,2,0,0,0-1.31.17q-9.95,5.86-19.86,11.81a2.73,2.73,0,0,1-3.23,0c-6.53-4-13.12-7.82-19.67-11.75a2,2,0,0,0-1.78-.21c-1.57.51-3.17.93-4.74,1.44a11.56,11.56,0,0,0-8,10.57c-.07,1.47,0,2.93,0,4.4,0,1.17-.58,1.87-1.47,1.87s-1.46-.73-1.46-1.88c0-2.67-.21-5.36.61-8a14.54,14.54,0,0,1,10.09-10c1.15-.36,2.35-.59,3.47-1a21.87,21.87,0,0,0,3.77-1.74c3.4-2.13,6.73-4.37,10.09-6.56a1.76,1.76,0,0,0,.2-2.73,16.75,16.75,0,0,1-6-10.56,1.32,1.32,0,0,0-.66-.85,3.94,3.94,0,0,1-2.64-4c0-3.51,0-7,0-10.52a4.39,4.39,0,0,0-.43-1.28A9.11,9.11,0,0,1,29,23.39c-.1-1.81,0-3.63,0-5.59l-7.06-1.21v6.86l.62.11a2.84,2.84,0,0,1,2.36,2.75c-.23,5,1.13,9.78,1.87,14.64.32,2.14-.36,3.68-2.12,4.24a3.83,3.83,0,0,1-1.12.15h-6a3.2,3.2,0,0,1-3.43-4c.36-2.32.74-4.64,1.19-6.95A33.67,33.67,0,0,0,16,26.93c-.07-2.05.91-3.14,3-3.46,0-.25,0-.53.05-.81,0-1.78,0-3.57,0-5.35A3.59,3.59,0,0,0,18.36,15a3,3,0,0,1,1.69-4.59c3.38-1.11,6.78-2.17,10.17-3.25C36.34,5.16,42.44,3.18,48.58,1.3a5.24,5.24,0,0,1,2.86,0c9.38,2.91,18.72,5.91,28.08,8.88,1.75.56,2.57,1.51,2.6,3a2.88,2.88,0,0,1-2.42,3.09c-2.52.49-5.07.89-7.6,1.34l-1.1.22c0,1.78,0,3.53,0,5.27a3.74,3.74,0,0,1-.91,2.73,1.67,1.67,0,0,0-.27,1.05c0,3.41,0,6.82,0,10.23A4.11,4.11,0,0,1,67,41.49a1,1,0,0,0-.47.68,16.76,16.76,0,0,1-6.06,10.72,1.76,1.76,0,0,0,.19,2.61C64.5,58,68.31,60.57,72.2,63a12.75,12.75,0,0,0,3.22,1.1c2.6.77,5.23,1.43,7.43,3.13A14.48,14.48,0,0,1,88.76,79c.08,4.56,0,9.11,0,13.67a6.14,6.14,0,0,1-4.51,6,2.3,2.3,0,0,0-.42.2ZM39.42,26.63c-.25,1.9.34,3.92-1,5.62s-3.24,1.94-5.21,1.8c0,.2-.09.29-.1.38,0,1,0,2,0,3,0,.8.23,1.22,1.11,1.33a2.17,2.17,0,0,1,2,2.17c.05.38.11.76.16,1.14a13.78,13.78,0,0,0,27.35-.94c.19-1.57.69-2.07,2.21-2.43.33-.08.83-.44.85-.69.09-1.28,0-2.58,0-3.91a7.68,7.68,0,0,0-1,0,4.69,4.69,0,0,1-5.23-5.24c0-.72,0-1.45,0-2.2Zm-7.44-3H68V17.86l-1.1-.15-1-.12c-1.09-.13-1.67-.74-1.58-1.65s.79-1.33,1.89-1.24a29,29,0,0,0,4.25.21c1.68-.13,3.33-.54,5-.82l3.8-.66a1.26,1.26,0,0,0-.66-.48q-14-4.45-28-8.89a2.12,2.12,0,0,0-1.27,0Q35.63,8.41,22,12.78l-1.22.4a1.61,1.61,0,0,0,.89.42c1.75.3,3.5.61,5.26.9a18.84,18.84,0,0,0,3.76.54c2.15-.1,4.29-.49,6.44-.76,3.28-.41,6.57-.83,9.85-1.22,4.13-.48,8.19.29,12.26.77a1.46,1.46,0,0,1,1.27,1.55,1.42,1.42,0,0,1-1.59,1.29c-.95-.06-1.9-.18-2.85-.31A35.39,35.39,0,0,0,46.63,16c-2.84.37-5.68.68-8.53,1-2,.25-4.08.52-6.12.79ZM42.93,55a23.85,23.85,0,0,0,.78,7.5,1,1,0,0,0,.69.59,32.47,32.47,0,0,0,11.21,0,.92.92,0,0,0,.65-.52,24,24,0,0,0,.79-7.56A16.79,16.79,0,0,1,42.93,55Zm17,3.44A33.26,33.26,0,0,1,55,73l14.17-8.43ZM30.83,64.53,45,73a33.72,33.72,0,0,1-5-14.45C36.9,60.55,33.91,62.51,30.83,64.53ZM18.65,32c-.58,3.32-1.15,6.6-1.71,9.88-.12.67.37.62.79.62,1.81,0,3.63,0,5.44,0,.7,0,.9-.22.77-.91C23.6,39.8,23.33,38,23,36.23c-.25-1.43-.51-2.85-.77-4.25Zm36.59,34.4H44.74L50,75.13ZM33.18,26.63v4.55a15.22,15.22,0,0,0,1.66,0,1.54,1.54,0,0,0,1.54-1.32,31.36,31.36,0,0,0,0-3.22Zm30.38,0c0,1.06-.05,2,0,3A1.55,1.55,0,0,0,65,31.15a11.49,11.49,0,0,0,1.76,0V26.63ZM18.9,29H22v-2.5H18.9Z"/></svg>