<svg id="Layer_1" data-name="Layer 1" xmlns="http://www.w3.org/2000/svg" viewBox="0 0 100 100"><path d="M48,94l-.59,0a5.73,5.73,0,0,1-4.79-4.09.9.9,0,0,0-.25-.41,37.28,37.28,0,0,1-16-6.73,7.27,7.27,0,0,1-3.37,1A5.16,5.16,0,0,1,19.24,82a5.55,5.55,0,0,1-.76-6.88q-.57-1-1.14-2c-1-1.74-1.89-3.37-2.74-5.1a32.08,32.08,0,0,1-2.69-9,.8.8,0,0,0-.37-.38,5.71,5.71,0,0,1-4.23-5.39,5.65,5.65,0,0,1,4.25-5.47.86.86,0,0,0,.34-.31,36.87,36.87,0,0,1,6.64-15.91l0,0a5.57,5.57,0,0,1,.84-7.26A5,5,0,0,1,23,22.78a7.51,7.51,0,0,1,3.4.95,35.67,35.67,0,0,1,10.9-5.47c1.48-.44,3-.76,4.49-1.08l.53-.11c.3-.06.32-.09.39-.36a5.57,5.57,0,0,1,10.8,0c.08.32.11.33.35.37a36.74,36.74,0,0,1,16,6.67,6,6,0,0,1,3.14-1,5.24,5.24,0,0,1,1.4.19,5.64,5.64,0,0,1,3.78,3.25,5.54,5.54,0,0,1-.33,4.9c-.2.35-.2.45,0,.75a36.31,36.31,0,0,1,6.45,15.6.71.71,0,0,0,.32.32,5.72,5.72,0,0,1,4.28,5.45c0,2.53-1.57,4.51-4.29,5.44a.66.66,0,0,0-.31.33,37.19,37.19,0,0,1-6.43,15.61.79.79,0,0,0-.12.51,5.67,5.67,0,0,1-.9,7,5.28,5.28,0,0,1-3.72,1.54,6.48,6.48,0,0,1-3.27-1A36.71,36.71,0,0,1,56,89l-.15,0a5,5,0,0,1-.56.1A2.16,2.16,0,0,0,53,90.75,5,5,0,0,1,48,94Zm0-8.24a2.48,2.48,0,0,0-1.8.76,2.91,2.91,0,0,0-.76,2.12,2.68,2.68,0,0,0,2.64,2.48h0A2.66,2.66,0,0,0,50,90.29a2.7,2.7,0,0,0-1.91-4.57v-.5Zm1.6-9.09c0,2,0,4.16,0,6.29a1.23,1.23,0,0,0,.08.12,5.59,5.59,0,0,1,3.67,3.47,33.46,33.46,0,0,0,14.45-6c0-.21-.09-.41-.13-.61a5.91,5.91,0,0,1,.14-4.06c0-.15.09-.29.13-.43l-5.28-5.3c-.53.31-1.06.64-1.59,1a32.75,32.75,0,0,1-4.59,2.5,32.92,32.92,0,0,1-5,1.47l-1.89.46ZM28.27,80.49a33.59,33.59,0,0,0,14.51,6c1-1.91,1.65-2.76,3-3.16.77-.24.87-.56.8-1.4,0-.43,0-.86,0-1.28,0-.18,0-.36,0-.54V75.32a22.41,22.41,0,0,1-13-5.37l-5.44,5.49C29,77.65,29,78.2,28.27,80.49Zm-5.08-5.08a2.61,2.61,0,0,0-2.63,2.65,2.71,2.71,0,0,0,.78,2,2.61,2.61,0,0,0,1.86.77,2.75,2.75,0,0,0,2.69-2.67,2.6,2.6,0,0,0-.77-1.89,2.67,2.67,0,0,0-1.92-.81v0Zm49.75,0a2.7,2.7,0,0,0-1.92.81,2.66,2.66,0,0,0-.77,1.88,2.75,2.75,0,0,0,2.67,2.68h0A2.62,2.62,0,0,0,74.8,80a2.76,2.76,0,0,0,.79-2A2.61,2.61,0,0,0,73,75.41l0-.5ZM23.27,72.5a5.6,5.6,0,0,1,2.49.6l5.49-5.49a18.56,18.56,0,0,1-3.63-6c-.55-1.64-1-3.27-1.4-5q-.22-.94-.48-1.89H18.31a5.81,5.81,0,0,1-3.53,3.82,33.34,33.34,0,0,0,6,14.53A6.18,6.18,0,0,1,23.27,72.5Zm47,.59.57-.15a8.52,8.52,0,0,1,2-.38h.12a9,9,0,0,1,1.9.27l.58.13a33.34,33.34,0,0,0,5.95-14.47,5.8,5.8,0,0,1-3.51-3.77H70.17a22.37,22.37,0,0,1-5.31,12.92Zm-20-.8V50.76H46.82V72.29Zm-9.89-1.51c.95.38,1.92.71,2.95,1.07l.39.13V54.51h-3.5v2.81l0,4.94V65c0,1.79,0,3.58,0,5.37A.9.9,0,0,0,40.35,70.78Zm13,1,.47-.19c.87-.34,1.69-.67,2.53-1,.38-.14.51-.28.51-.86q0-10.26,0-20.52V43.27H53.36ZM33.65,61.06c0,1.57,0,3.1,0,4.62a.76.76,0,0,0,0,.27c1,1,2.1,1.92,3.17,2.89l.29.26v-9h-3.5ZM59.93,68.4l.42-.41c.88-.87,1.8-1.78,2.64-2.71a2,2,0,0,0,.42-1.17c.05-1.3,0-2.63,0-3.92V55.46H59.93ZM48.16,34a19.43,19.43,0,0,0-14.1,6.11A18.88,18.88,0,0,0,30.7,61.31c0-.32,0-.64,0-1,0-1.47,0-2.28.44-2.76a2.37,2.37,0,0,1,1.79-.44h4.29s0-3,0-3.71c0-1.38.51-1.87,1.86-1.9h4.69V50c0-1.82.41-2.24,2.2-2.24h4.35V42.22c0-1.38.52-1.89,1.88-1.9h5.61c1.54,0,2,.48,2,2v9.54a5.59,5.59,0,0,0,0,.57h4c2.21,0,2.52.3,2.52,2.48v3.71a19.07,19.07,0,0,0-6.48-20.6A18.8,18.8,0,0,0,48.16,34Zm35,16.56a2.57,2.57,0,0,0-2.57,2.67,2.73,2.73,0,0,0,.74,1.93,2.58,2.58,0,0,0,1.86.77,2.67,2.67,0,0,0,2.66-2.68,2.73,2.73,0,0,0-.78-1.93,2.65,2.65,0,0,0-1.88-.76V50Zm-70.29,0A2.65,2.65,0,0,0,11,51.3a2.72,2.72,0,0,0-.77,1.93,2.63,2.63,0,0,0,2.62,2.67h0a2.56,2.56,0,0,0,1.89-.76,2.74,2.74,0,0,0,.75-1.93,2.58,2.58,0,0,0-2.58-2.67l0-.5ZM26,51.74a22.34,22.34,0,0,1,5.36-13l-5.47-5.46a5.64,5.64,0,0,1-2.6.64,6.32,6.32,0,0,1-2.46-.52,33.41,33.41,0,0,0-6,14.43l.54.35A7.84,7.84,0,0,1,17,49.44a8.46,8.46,0,0,1,1.15,1.76c.09.18.19.36.29.54Zm51.88,0a5.34,5.34,0,0,1,3.33-3.68c.21-.09.21-.09.15-.4a31.46,31.46,0,0,0-2.9-9c-.68-1.32-1.45-2.62-2.2-3.88-.26-.46-.53-.91-.79-1.36a6.82,6.82,0,0,1-2.59.55,5.4,5.4,0,0,1-2.5-.61l-5.49,5.5a22.17,22.17,0,0,1,5.31,12.93ZM33.57,36.51a22.26,22.26,0,0,1,13-5.38V29.91c0-2.15,0-4.25,0-6.35a.35.35,0,0,0-.1-.16,5.67,5.67,0,0,1-3.64-3.47,33.33,33.33,0,0,0-14.54,6A5.57,5.57,0,0,1,28.14,31Zm16-5.38a22.29,22.29,0,0,1,13,5.34L68,31a5.58,5.58,0,0,1-.12-5,33.1,33.1,0,0,0-14.53-6,5.42,5.42,0,0,1-3.3,3.32c-.47.16-.51.27-.48.69s0,1,0,1.54c0,.21,0,.43,0,.64Zm23.33-5.47a2.74,2.74,0,0,0-2.66,2.68A2.65,2.65,0,0,0,71,30.23a2.7,2.7,0,0,0,1.91.8,2.64,2.64,0,0,0,2.65-2.66,2.74,2.74,0,0,0-.79-1.94,2.61,2.61,0,0,0-1.86-.77v-.5Zm-49.7,0a2.62,2.62,0,0,0-1.87.77,2.72,2.72,0,0,0-.78,2A2.62,2.62,0,0,0,23.2,31a2.67,2.67,0,0,0,1.92-.81,2.64,2.64,0,0,0,.77-1.9,2.74,2.74,0,0,0-2.68-2.66v0Zm24.85-10.3a2.67,2.67,0,0,0-2.63,2.48,2.64,2.64,0,0,0,2.48,2.88H48a2.57,2.57,0,0,0,2.66-2.65,2.63,2.63,0,0,0-2.56-2.72Z"/><path d="M84.59,24.71a7.06,7.06,0,0,1-5-2.1,7,7,0,0,1-2.06-5,7.09,7.09,0,0,1,12.11-4.94,6.92,6.92,0,0,1,2,5,7.06,7.06,0,0,1-7,7Zm0-11.22a4.06,4.06,0,0,0-2.9,1.21,4.21,4.21,0,0,0-1.23,3,4.17,4.17,0,0,0,4.13,4.14,4.09,4.09,0,0,0,2.91-1.21,4.19,4.19,0,0,0-2.9-7.14v0Z"/><path d="M12.46,94a5.24,5.24,0,0,1-3.68-1.58,5.08,5.08,0,0,1-1.47-3.66,5.21,5.21,0,0,1,8.94-3.53,5.09,5.09,0,0,1,1.48,3.66A5.2,5.2,0,0,1,12.49,94Zm0-7.48a2.27,2.27,0,0,0-2.22,2.29,2.32,2.32,0,0,0,.68,1.66,2.18,2.18,0,0,0,1.57.66,2.23,2.23,0,0,0,1.59-.67,2.31,2.31,0,0,0-1.57-3.94V86Z"/><path d="M62.58,15a2,2,0,0,1-1.37-.61,1.93,1.93,0,0,1-.6-1.37,2.1,2.1,0,0,1,1.92-2h0a2.07,2.07,0,0,1,2,2A2.09,2.09,0,0,1,62.62,15Z"/><path d="M27,16.29a1.9,1.9,0,1,1,.05-3.8,2,2,0,0,1,1.46.64,1.86,1.86,0,0,1,.5,1.33,1.92,1.92,0,0,1-2,1.83Z"/><path d="M86,64a1.93,1.93,0,0,1-2-1.86,1.86,1.86,0,0,1,.53-1.34,2,2,0,0,1,1.45-.6A1.9,1.9,0,1,1,86,64Z"/><path d="M9.25,70.56a2,2,0,0,1-1.46-.62,1.84,1.84,0,0,1-.52-1.36,2,2,0,1,1,2,2Z"/><path d="M10.14,33.13a1.9,1.9,0,1,1,0-3.8,2,2,0,0,1,1.46.64,1.88,1.88,0,0,1,.5,1.34,1.92,1.92,0,0,1-2,1.82Z"/><path d="M86,31.8a2,2,0,0,1-1.37-.62,1.93,1.93,0,0,1-.6-1.37,2.08,2.08,0,0,1,2-1.95,2.13,2.13,0,0,1,2,2,2.13,2.13,0,0,1-1.92,2Z"/><path d="M82.13,86.46a1.94,1.94,0,0,1-1.37-.63,1.83,1.83,0,0,1-.5-1.34,1.92,1.92,0,0,1,2-1.83h.13a1.9,1.9,0,1,1-.16,3.8Z"/><path d="M30.74,92.08a2,2,0,0,1-1.95-1.89,1.82,1.82,0,0,1,.55-1.32,2,2,0,0,1,1.44-.59,2.05,2.05,0,0,1,1.45.63,1.85,1.85,0,0,1,.5,1.33,1.94,1.94,0,0,1-2,1.84Z"/></svg>