<svg id="Layer_1" data-name="Layer 1" xmlns="http://www.w3.org/2000/svg" viewBox="0 0 100 100">
<style type="text/css">
	.st0{fill:#fff;}
</style>
    <path class='st0'
        d="M55.27,97.22a20,20,0,0,1-1.78-1.51C51,93,48.48,90.18,46,87.43a2.51,2.51,0,0,1-.68-2.9,2.48,2.48,0,0,1,2.61-1.43c.45,0,.9,0,1.46,0,0-.39,0-.71,0-1,0-3.52,0-7,0-10.56a1.67,1.67,0,0,1,1-1.76,1.56,1.56,0,0,1,2.15,1.49c0,1.33,0,2.66,0,4v8.83c0,1.75-.47,2.22-2.19,2.23H49.27l6.64,7.33,6.65-7.33H61.11c-1.31,0-1.88-.57-1.88-1.89q0-6.47,0-12.92c0-1.13.62-1.83,1.57-1.84a1.6,1.6,0,0,1,1.59,1.82c0,3.51,0,7,0,10.55V83.1h1.81A2.42,2.42,0,0,1,66,87.23q-4.11,4.56-8.26,9.09a7.93,7.93,0,0,1-1.23.9Z" />
    <path class='st0'
        d="M91.37,47.29c-.06.21-.14.63-.28,1q-4.43,11.77-8.86,23.55c-.64,1.7-1.65,2.17-3.35,1.53l-53.4-20C23.86,52.73,23.39,51.67,24,50q4.43-11.77,8.86-23.55c.66-1.76,1.65-2.22,3.41-1.56l42.52,16q5.45,2,10.88,4.1A2.24,2.24,0,0,1,91.37,47.29ZM27.22,50.58,79.45,70.19c2.83-7.55,5.63-15,8.44-22.49L35.67,28.09Z" />
    <path class='st0'
        d="M11,23V19.49c0-2.7,0-5.4,0-8.1A1.61,1.61,0,0,1,12.82,9.6a1.53,1.53,0,0,1,1.41,1.62q0,6.69,0,13.37c0,1.08-.67,1.61-1.78,1.64H10.91l6.64,7.33,6.65-7.33H22.68a1.61,1.61,0,0,1-1.82-1.78q0-6.56,0-13.1a1.61,1.61,0,1,1,3.2,0c0,3.48,0,7,0,10.46V23h1.77a2.34,2.34,0,0,1,2.34,1.42,2.41,2.41,0,0,1-.55,2.76c-2.71,3-5.41,6-8.13,9a2.39,2.39,0,0,1-3.86,0c-2.73-3-5.42-6-8.14-9A2.43,2.43,0,0,1,9.33,23Z" />
    <path class='st0'
        d="M72.68,31.9a6.4,6.4,0,0,1,12.79-.08,6.4,6.4,0,0,1-12.79.08Zm9.56,0a3.19,3.19,0,0,0-3.13-3.23,3.24,3.24,0,0,0-3.25,3.22A3.2,3.2,0,0,0,79.06,35,3.14,3.14,0,0,0,82.24,31.88Z" />
    <path class='st0'
        d="M11.17,78.61a6.39,6.39,0,0,1,12.78,0,6.39,6.39,0,1,1-12.78,0Zm9.56,0a3.21,3.21,0,0,0-3.2-3.17,3.25,3.25,0,0,0-3.19,3.2,3.2,3.2,0,0,0,3.27,3.19A3.15,3.15,0,0,0,20.73,78.58Z" />
    <path class='st0'
        d="M88.24,78.11q0-3.14,0-6.27c0-.77.3-1.46,1.07-1.6a2.41,2.41,0,0,1,1.63.38,1.78,1.78,0,0,1,.5,1.29q0,6.16,0,12.35a1.64,1.64,0,0,1-1.59,1.83c-1,0-1.62-.73-1.62-1.9C88.23,82.16,88.24,80.13,88.24,78.11Z" />
    <path class='st0'
        d="M54.36,20.07v6c0,1.18-.61,1.93-1.56,1.95s-1.64-.72-1.65-2q0-6,0-12.08c0-1.26.64-2,1.66-2s1.54.75,1.55,2Z" />
    <path class='st0'
        d="M16,60.36q0,3,0,6.09c0,1.2-.6,1.9-1.6,1.89s-1.58-.68-1.59-1.83q0-6.14,0-12.28c0-1.19.66-1.87,1.66-1.84s1.53.71,1.53,1.87Q16,57.31,16,60.36Z" />
    <path class='st0'
        d="M79.35,16.06c0,1.28,0,2.55,0,3.82a1.59,1.59,0,1,1-3.16,0q0-3.86,0-7.72a1.59,1.59,0,1,1,3.16,0C79.36,13.46,79.35,14.76,79.35,16.06Z" />
    <path class='st0'
        d="M16,48.38V49a1.65,1.65,0,0,1-1.59,1.75,1.62,1.62,0,0,1-1.6-1.65,11.09,11.09,0,0,1,0-1.63,1.59,1.59,0,0,1,3.17.07c0,.27,0,.55,0,.82Z" />
    <path class='st0'
        d="M54.36,8.07v.18c0,1.44-.55,2.16-1.62,2.15s-1.59-.73-1.59-2.2a7.75,7.75,0,0,1,0-1.08,1.54,1.54,0,0,1,1.65-1.47,1.56,1.56,0,0,1,1.52,1.6C54.37,7.52,54.35,7.79,54.36,8.07Z" />
    <path class='st0'
        d="M91.46,66.11c0,.27,0,.54,0,.81a1.61,1.61,0,0,1-3.21-.06,13.36,13.36,0,0,1,0-1.55,1.61,1.61,0,0,1,3.21,0C91.48,65.56,91.46,65.83,91.46,66.11Z" />
    <path class='st0'
        d="M79.34,6.39c0,.3,0,.61,0,.91a1.52,1.52,0,0,1-1.61,1.49,1.5,1.5,0,0,1-1.53-1.48,16.45,16.45,0,0,1,0-1.72,1.57,1.57,0,0,1,3.14,0A7.48,7.48,0,0,1,79.34,6.39Z" />
    <path class='st0'
        d="M37.65,34.42A3.68,3.68,0,0,0,41.47,33a2.17,2.17,0,0,1,2.62-.32c5.15,1.95,10.32,3.88,15.47,5.82,6.24,2.34,12.47,4.71,18.72,7a2.7,2.7,0,0,1,2.11,2.87,3,3,0,0,0,1.48,2.56,2.22,2.22,0,0,1,1,3.1q-1.53,4.09-3.07,8.17a2.19,2.19,0,0,1-2.75,1.6,3.1,3.1,0,0,0-3,1.06,2.51,2.51,0,0,1-3.16.73Q53.83,59.11,36.68,52.72A2.57,2.57,0,0,1,34.74,50a3.1,3.1,0,0,0-1.49-2.66c-1.32-.9-1.56-1.63-1-3.09,1-2.73,2-5.45,3.06-8.17A2.23,2.23,0,0,1,37.65,34.42Zm42,19a3.44,3.44,0,0,1-.44-.48,12.13,12.13,0,0,1-1.81-3.08,2.21,2.21,0,0,0-1.79-1.9,2.19,2.19,0,0,1-.43-.15L44.11,36.1c-.43-.16-.83-.38-1.32.06a6.3,6.3,0,0,1-4.16,1.57,1,1,0,0,0-.68.51q-1.22,3.07-2.34,6.2a.93.93,0,0,0,.19.82,7.28,7.28,0,0,1,2.14,3.92,1.22,1.22,0,0,0,.65.8q16.35,6.18,32.72,12.28a1.28,1.28,0,0,0,1-.18,6.38,6.38,0,0,1,4-1.48.82.82,0,0,0,.91-.65c.74-2,1.5-4,2.25-6Z" />
    <path class='st0'
        d="M57.63,42.77a6.38,6.38,0,1,1-6.47,6.35A6.39,6.39,0,0,1,57.63,42.77Zm3.11,6.41a3.19,3.19,0,1,0-3.19,3.15A3.15,3.15,0,0,0,60.74,49.18Z" />
    <path class='st0'
        d="M66.93,54.34a4.44,4.44,0,1,1,8.88,0,4.44,4.44,0,0,1-8.88,0Zm5.65-.05a1.22,1.22,0,1,0-1.15,1.25A1.19,1.19,0,0,0,72.58,54.29Z" />
    <path class='st0'
        d="M48.18,44a4.44,4.44,0,1,1-4.41-4.47A4.45,4.45,0,0,1,48.18,44ZM45,43.91a1.23,1.23,0,1,0-1.16,1.26A1.21,1.21,0,0,0,45,43.91Z" />
    </svg>