<svg id="Layer_1" data-name="Layer 1" xmlns="http://www.w3.org/2000/svg" viewBox="0 0 100 100">
<style type="text/css">
	.st0{fill:#fff;}
</style>
    <path class='st0'
        d="M9,69.78a3.08,3.08,0,0,1-3.27-3.24V52.31l-.51,0a3,3,0,0,1-1.83-.61,3.07,3.07,0,0,1-1.25-2.34,3.16,3.16,0,0,1,1.1-2.49S15,36.74,15.64,36.17a3,3,0,0,1,4.08,0L21.88,38,23,39V37.91c0-.73,0-1.48.05-2.22a2.81,2.81,0,0,1,2.89-2.61h.16A2.91,2.91,0,0,1,28.83,36q0,3.9,0,7.78a.6.6,0,0,0,.24.53l2.18,1.88.75.65a3.11,3.11,0,0,1,.92,3.71,3.06,3.06,0,0,1-2.86,1.8,3.4,3.4,0,0,1-.45,0V66.49a3.09,3.09,0,0,1-3.3,3.28H9Zm8.66-26.73a1.86,1.86,0,0,0-1.21.48q-4.65,4-9.27,8a.57.57,0,0,0-.16.35q0,7.37,0,14.74a1.79,1.79,0,0,0,1.9,1.89H26.41a1.78,1.78,0,0,0,1.91-1.88q0-7.38,0-14.74a.5.5,0,0,0-.14-.32q-4.65-4-9.33-8A1.81,1.81,0,0,0,17.67,43.05Zm0-6.39a1.76,1.76,0,0,0-1.16.47Q10.26,42.5,4.07,47.89a1.69,1.69,0,0,0-.62,1.37A1.75,1.75,0,0,0,4.67,51a2.26,2.26,0,0,0,.63.11,1.12,1.12,0,0,0,.77-.29l9.36-8.07a3.42,3.42,0,0,1,2.23-.94,3.42,3.42,0,0,1,2.23.94l9.4,8.08a1,1,0,0,0,.41.21,1.54,1.54,0,0,0,.43.06,1.81,1.81,0,0,0,1.11-3.21l-9.15-7.93L19,37.23A2.09,2.09,0,0,0,17.63,36.66Zm8.28-2.3a1.63,1.63,0,0,0-1.64,1.71c0,1.29,0,2.58,0,3.87a.35.35,0,0,0,.05.2c.9.8,1.81,1.59,2.76,2.41l.46.4s0-5.25,0-6.86a1.62,1.62,0,0,0-1.62-1.73v0Z" />
    <path class='st0'
        d="M21.57,67.43a1.3,1.3,0,0,1-1.31-1.37c0-.42,0-.83,0-1.27V64.4H19a.69.69,0,0,1-.74-1.08l.56-1.42.07-.16-1.08-.24a1.44,1.44,0,0,1-.79.27c-.49,0-.89-.34-1.19-1-.06-.14-.12-.27-.19-.4v5.45c0,1-.53,1.6-1.35,1.6a1.89,1.89,0,0,1-.77-.17h0a.23.23,0,0,0-.13,0,1.78,1.78,0,0,1-.7.16A1.38,1.38,0,0,1,11.26,66c0-.74,0-1.49,0-2.24v-.86h-.07A1.24,1.24,0,0,1,10,61.62v-.25c0-1,0-2.07,0-3.11.1-1.34.47-1.85,1.69-2.16-1-1.64-.41-2.65.28-3.22a2.26,2.26,0,0,1,3.07,3.31,4,4,0,0,1,1.72,1.32c.33.44.62.91.91,1.36a2.61,2.61,0,0,1,.17.28,5.85,5.85,0,0,1,2.78-3,2.27,2.27,0,0,1,.36-3.4,2.24,2.24,0,0,1,1.3-.42A2.27,2.27,0,0,1,24,56.18l.34.2a2.89,2.89,0,0,1,.82.6c.54.63,1,1.3,1.51,2l.46.62A1.22,1.22,0,0,1,27.2,61a1.19,1.19,0,0,1-1.07.63H26a1,1,0,0,1-.25-.06l.63,1.58c.18.46.26.77.1,1s-.48.28-1,.28H24.39v1.39c0,1.39-.81,1.6-1.28,1.6a2.47,2.47,0,0,1-.76-.13.34.34,0,0,0-.15,0A1.77,1.77,0,0,1,21.57,67.43Zm-.85-4.31c.61,0,.81.21.82.83v1.93a1.43,1.43,0,0,0,0,.25c.12,0,.12-.14.12-.2V63.87a.79.79,0,0,1,.19-.6.6.6,0,0,1,.45-.17c.21,0,.66.08.65.77s0,1.28,0,1.92v.13a1.15,1.15,0,0,0,0,.2h.13a.73.73,0,0,0,0-.22v-2c0-.53.21-.75.75-.76h1.08s-.15-.41-.23-.6c-.5-1.25-1-2.51-1.52-3.76a.65.65,0,0,1,.26-.91.61.61,0,0,1,.31-.09.76.76,0,0,1,.57.35l.43.54c.35.45.71.89,1.07,1.34-.58-.78-1.18-1.58-1.79-2.34a.67.67,0,0,0-.5-.27.84.84,0,0,0-.33.08,2,2,0,0,1-.86.19,2.83,2.83,0,0,1-1-.19,1,1,0,0,0-.25,0,.35.35,0,0,0-.17,0,4.44,4.44,0,0,0-1.81,2l0-.06A13.58,13.58,0,0,1,20.39,58a.76.76,0,0,1,.54-.19.79.79,0,0,1,.28.05c.15.07.49.29.23.9L19.74,63l0,.13h1Zm-8.84-5.31a.63.63,0,0,1,.66.64,1.13,1.13,0,0,1,0,.26V65.8a.32.32,0,0,0,0,.14.41.41,0,0,0,.15.18s.05-.08.11-.19,0-.21,0-.21V62.58A.73.73,0,0,1,13,62a.65.65,0,0,1,.45-.17h0a.62.62,0,0,1,.63.67c0,.07,0,1,0,1v2.23a.75.75,0,0,0,0,.3h.09c.11,0,.12,0,.12-.28V61.33c0-.93,0-1.87,0-2.8a.84.84,0,0,1,.38-.68.45.45,0,0,1,.2,0,1,1,0,0,1,.33.06l-.47-.41a.32.32,0,0,0-.2-.05.29.29,0,0,0-.14,0,2.78,2.78,0,0,1-1,.2,2.75,2.75,0,0,1-1.07-.23.94.94,0,0,0-.36-.08.61.61,0,0,0-.64.61v.14a.57.57,0,0,1,.52-.27Zm1.54-4.15a1,1,0,0,0-1,1,1,1,0,0,0,.95,1h0a1,1,0,1,0,0-2l0-.21Zm8.89,0a1,1,0,0,0,0,2h0a1,1,0,0,0,0-2l0-.21Z" />
    <path class='st0'
        d="M14.73,49.65a.89.89,0,0,1-.69-.22.85.85,0,0,1-.15-.71,3.8,3.8,0,0,1,3.65-3.53h.14a3.85,3.85,0,0,1,3.79,3.28,2.47,2.47,0,0,1,0,.39.66.66,0,0,1-.77.79h-6Zm5.37-1.31a2.35,2.35,0,0,0-1.73-1.75v1.75Zm-3.07,0V46.59a2.42,2.42,0,0,0-1.76,1.74Z" />
    <path class='st0'
        d="M37.34,64.73c-1.07-.41-1.33-.79-1.33-1.88v-1c0-1.11,0-2.22,0-3.33,0-.15,0-.18-.12-.24a1.51,1.51,0,0,1-.79-1.36c0-.21,0-.42,0-.62v-.17a1.6,1.6,0,0,1,1.7-1.7h3.3V53.2a5.29,5.29,0,0,1,.54-2.7.51.51,0,0,0,0-.19V48.66c0-1.38,0-2.81-.07-4.21,0-.72-.12-1.45-.21-2.16-.07-.54-.14-1.07-.19-1.61v-.12c-.11-1.35-.23-2.74-.23-4.12a4.18,4.18,0,0,1,4.23-4.11h2.37a.35.35,0,0,0,.32-.14,4.21,4.21,0,0,1,3.19-1.44h4a4.37,4.37,0,0,1,3.23,1.44.43.43,0,0,0,.29.13h1.25c.56,0,1.1,0,1.65.05a4.2,4.2,0,0,1,3.72,4c0,.73-.39.85-.64.87h0c-.24,0-.69-.08-.74-.8a2.81,2.81,0,0,0-2.74-2.73l-.8,0H58.21a8.73,8.73,0,0,1,.21,2.53c0,.4,0,.8,0,1.21a.61.61,0,0,0,.07.15l.06.09a2.37,2.37,0,0,1,.62,1.77A2,2,0,0,1,58.59,41a2.91,2.91,0,0,1-.79.39l-.3.12v.06c0,.16-.08.38-.13.59a4.59,4.59,0,0,1-1.45,2.39.4.4,0,0,0-.16.38c0,.4,0,.79,0,1.19v.62c0,.33,0,.33.35.39l.49.08c.94.15,1.87.3,2.8.5a7.53,7.53,0,0,1,2.74,1.12c0-.43,0-.87,0-1.31,0-1,0-2,.07-3s.16-1.82.27-2.7c.05-.4.1-.81.14-1.22s.12-1.08.17-1.63.3-.74.69-.74a.71.71,0,0,1,.54.24.79.79,0,0,1,.15.6c0,.46-.11.91-.16,1.37-.09.68-.17,1.36-.23,2-.14,1.52-.22,2.75-.25,3.88,0,1,0,2,0,2.92v1a.83.83,0,0,0,.07.32,5,5,0,0,1,.5,2.24v1.61H66c.38,0,.76,0,1.13,0h.12a1.76,1.76,0,0,1,1.83,1.25v1.51a1.72,1.72,0,0,1-.79,1.1c-.1,0-.12.08-.12.23v4.35a1.62,1.62,0,0,1-1.25,1.86H37.34ZM37.4,63c0,.28,0,.3.34.3H66.47c.32,0,.33,0,.33-.34V58.53H37.4Zm-.49-7.21c-.38,0-.42,0-.42.41v.36c0,.53,0,.53.52.53H66.93c.78,0,.78,0,.78-.79,0-.51,0-.51-.52-.51H36.91Zm15.71-1.41-.28-1.14h-.48l-.28,1.14Zm-3.33,0L47,48.87,47,48.7l-1.88.4-.41.08v1.46c0,.49-.27.8-.69.8s-.69-.31-.69-.81V49.7l-.11.07a4.71,4.71,0,0,0-.69.54c-1.08,1-1,2.31-1,3.67,0,.14,0,.28,0,.42h1.8V53.17c0-.49.26-.8.69-.8h0c.42,0,.69.31.69.8v1.24Zm13.38,0c0-.18,0-.35,0-.52,0-.53,0-1,0-1.54a3.23,3.23,0,0,0-1.72-2.62l0,0v4.7Zm-3.17,0V49.18L59,49.07c-.54-.11-1.07-.21-1.59-.33h-.11s-.08,0-.14.15L55.47,53l-.56,1.37Zm-9.1-1a1.58,1.58,0,0,0-.19-1.62l-.39.19ZM54,51.89c-.09.19-.18.37-.26.56a.63.63,0,0,0-.06.25q.07.34.18.72L54.38,52,54,51.82Zm-2.46-.63a5.2,5.2,0,0,0,.26.53s.08.06.11.06l.33,0c.24,0,.24,0,.47-.5l.08-.18a1.08,1.08,0,0,0-.61-.27,1.37,1.37,0,0,0-.67.27Zm3.42-.54.9-2.21-.18,0a.32.32,0,0,0-.16,0,.53.53,0,0,0-.33.16c-.37.31-.76.61-1.14.9l-.6.47Zm-5.61,0L50.81,50l-.16-.13-1.83-1.41v-.2l-.06.21-.37.07Zm.54-5.14c0,.61-.05,1.22-.07,1.83L52,49.13l.09.07,2.28-1.77V45.57a6.14,6.14,0,0,1-2.3.47,6,6,0,0,1-2.24-.46ZM44.69,33.74q-.46,0-.93,0a2.72,2.72,0,0,0-2.41,2.62,29,29,0,0,0,.11,2.92c0,.53.11,1,.19,1.57s.17,1.27.21,1.92c.08,1.32.12,2.64.16,4l0,1.57c0,.16,0,.33,0,.49l.19-.1a11.47,11.47,0,0,1,1.05-.53,18.76,18.76,0,0,1,4.63-1l.17,0c.34,0,.34,0,.34-.35v-.38c0-.49,0-1,0-1.48a.53.53,0,0,0-.14-.33,4.86,4.86,0,0,1-1.42-2.26c-.06-.24-.11-.49-.15-.69l0-.13-.29-.11a2.5,2.5,0,0,1-.77-.37,2.11,2.11,0,0,1-.61-1.6,2.26,2.26,0,0,1,.61-1.73c.12-.1.14-.18.15-.38,0-.37,0-.73,0-1.1A8.28,8.28,0,0,1,46,33.76H44.69ZM48,39.8v.36a6.57,6.57,0,0,0,0,.77,3.51,3.51,0,0,0,1.2,2.64,4.29,4.29,0,0,0,2.81,1.08h0a5.09,5.09,0,0,0,.77-.06,3.8,3.8,0,0,0,3.22-3,16.5,16.5,0,0,0,.1-2.22c0-.3,0-.6,0-.89h0l-.07-.05A1.74,1.74,0,0,1,55.36,37c0-.57,0-1.14,0-1.7,0-.33-.13-.36-.28-.36a4.77,4.77,0,0,0-1,.21,6.87,6.87,0,0,1-1.89.28,6.59,6.59,0,0,1-1.9-.29,4.81,4.81,0,0,0-1-.19h-.1c-.23,0-.32,0-.32.42V37.1a1.29,1.29,0,0,1-.49,1.14c-.32.21-.32.44-.31.88,0,.17,0,.32,0,.47v.16A.07.07,0,0,1,48,39.8Zm-1.41-1.08c-.13,0-.15.09-.16.27v.77c0,.18,0,.25.16.27ZM57.58,40c.13,0,.14-.1.15-.25s0-.54,0-.8,0-.23-.15-.25ZM47.18,37.3c.24,0,.27,0,.27-.38v-.59c0-.38,0-.75,0-1.12a1.61,1.61,0,0,1,1.62-1.64,6.36,6.36,0,0,1,1.48.23,5.44,5.44,0,0,0,1.61.25,5.15,5.15,0,0,0,1.54-.24,7.09,7.09,0,0,1,.91-.22l.4,0a1.69,1.69,0,0,1,1.74,1.87v1.51c0,.36,0,.36.23.36h0V36.7c0-.57,0-1.13,0-1.69a2.91,2.91,0,0,0-2.85-2.87l-2,0-2.08,0A2.88,2.88,0,0,0,47.18,35c0,.55,0,1.09,0,1.63v.65Z" />
    <path class='st0'
        d="M83.86,71.55,82.34,71l-2.75-1.09-7.78-3a.68.68,0,0,1-.52-.76c0-.46,0-.91,0-1.37v-.43h0a2.11,2.11,0,0,1-1.91-2.12c0-.89,0-1.79,0-2.68a2.11,2.11,0,0,1,1.85-2.09l.09,0v-4a.19.19,0,0,1,.08-.16.19.19,0,0,1,.12,0h.07l1.64.63v0l.31-.4a5.42,5.42,0,0,1,3.59-1.79c.9-.14,1.79-.31,2.68-.48l.5-.1a.24.24,0,0,0,.11-.06s0-.09-.06-.1a6.85,6.85,0,0,1-3-4.15.35.35,0,0,0-.17-.17,2.78,2.78,0,0,1-2-2.73V42.5c0-1.32,0-2.68,0-4a7.88,7.88,0,0,1,5-7.27,8.53,8.53,0,0,1,3.32-.72,8.31,8.31,0,0,1,5.33,2.09,6.81,6.81,0,0,0,1.33.94,4,4,0,0,1,2.37,3.69c0,2.19,0,4.42,0,6.57a2.75,2.75,0,0,1-1.93,2.7.3.3,0,0,0-.23.26,6.76,6.76,0,0,1-2.86,4,.58.58,0,0,0-.12.14.48.48,0,0,0,.16.08c1.22.23,2.44.46,3.66.67a4.9,4.9,0,0,1,3.36,2.11l1.63-.62h.07a.27.27,0,0,1,.12,0,.21.21,0,0,1,.08.17v4l.21.06a3.83,3.83,0,0,1,.69.28,1.92,1.92,0,0,1,1,1.65c0,1.16,0,2.06,0,2.9a2.07,2.07,0,0,1-1.86,2l-.07,0v.41c0,.46,0,.92,0,1.39a.7.7,0,0,1-.52.76L85.22,71.07l-.78.3-.23.1-.11.06-.08,0ZM73,55.93c0,.54,0,1.06,0,1.58,0,.16,0,.22.18.31A3.46,3.46,0,0,1,75,60.63a3.24,3.24,0,0,1-1.3,2.86A1.34,1.34,0,0,0,73,64.91a1.05,1.05,0,0,1,0,.35c0,.15,0,.22.27.33l7.21,2.8,2.42.94.17.06V67.08q0-3.73,0-7.47c0-.14,0-.16-.22-.24L73,55.55Zm21.7-.34-2.52,1c-2.4.93-4.79,1.87-7.19,2.79-.19.07-.23.13-.23.35,0,2.52,0,5,0,7.55v2.13l.2-.07L93.62,66a2.59,2.59,0,0,1,.42-.14,1.63,1.63,0,0,0,.78-.38,1.54,1.54,0,0,0,.06-.8,4.84,4.84,0,0,1,0-.53.21.21,0,0,0-.14-.25,3.46,3.46,0,0,1,0-6.08.44.44,0,0,0,.12-.12c0-.59,0-1.19,0-1.81v-.3Zm-23.14,3.5c-.36,0-.52.15-.53.53V62c0,.4.2.56.53.56a1.76,1.76,0,0,0,1.68-1.74,1.75,1.75,0,0,0-1.64-1.75l0-.21Zm24.68,0a1.74,1.74,0,0,0,0,3.48h0c.42,0,.58-.16.59-.54s0-.54,0-.81v-.76c0-.29,0-.58,0-.87s-.17-.51-.53-.51v-.2ZM83.88,57.92H84l1.9-.73.18-.07L84,55l-2.13,2.12Zm3.45-1.29L93,54.41l-.18-.15a2.19,2.19,0,0,0-.74-.52c-.86-.27-1.76-.48-2.64-.69l-.88-.21Zm-6.79,0-1.25-3.74-.83.16c-.76.15-1.52.3-2.26.48a2.41,2.41,0,0,0-1.32.9Zm1.14-2,.91-.91-.23-.17c-.39-.3-.8-.61-1.21-.89,0,0-.08,0-.14,0Zm4.52,0,.66-2a2.84,2.84,0,0,0-1,.64c-.17.14-.34.29-.53.42Zm-2.25-2,1-.74a8,8,0,0,1-1,.06,8.51,8.51,0,0,1-1-.06C83.28,52.07,83.61,52.32,84,52.56Zm-5-9.63c0,.78,0,1.55,0,2.31a5,5,0,0,0,4.4,4.88q.3,0,.6,0a5,5,0,0,0,4.89-3.79A5,5,0,0,0,89,45.23c0-.8,0-1.6,0-2.42v-.76h-.39a7.36,7.36,0,0,1-5.35-2.21A7.2,7.2,0,0,1,78.9,42Zm11.8,1.54a1.08,1.08,0,0,0,0-1.31ZM77.16,43.19a.91.91,0,0,0-.2.52,1.09,1.09,0,0,0,.2.69Zm6.38-10.94a6.58,6.58,0,0,0-6.16,4.18,10,10,0,0,0-.44,3.74c0,.36,0,.73,0,1.09a.38.38,0,0,0,.19-.11.72.72,0,0,0,.07-.55.2.2,0,0,1,0-.15.21.21,0,0,1,.14-.07l.1,0h.39a5.74,5.74,0,0,0,4.4-2l.89-1a.2.2,0,0,1,.15-.07h0a.21.21,0,0,1,.16.08l.53.7a5.29,5.29,0,0,0,3,2,9.68,9.68,0,0,0,1.61.18h.28a5.62,5.62,0,0,0,.58,0h.94a.2.2,0,0,1,.2.18c0,.56.06.67.29.71v-1c0-1,0-1.92,0-2.88a2.35,2.35,0,0,0-1.44-2.28,6,6,0,0,1-1.68-1.18A6.31,6.31,0,0,0,83.54,32.25Z" />
    </svg>