<svg id="Layer_1" data-name="Layer 1" xmlns="http://www.w3.org/2000/svg" viewBox="0 0 100 100">
<style type="text/css">
	.st0{fill:#fff;}
</style>
    <path class='st0'
        d="M21.57,95c-1.24,0-1.43-.18-1.45-1.36a44.42,44.42,0,0,0-1.45-9.22c-.14-.6-.28-1.2-.41-1.8l-.05-.23a33,33,0,0,1-1.13-8.76,32.29,32.29,0,0,1,.41-3.28L17.7,69a4.55,4.55,0,0,0-.63-3.15A30.29,30.29,0,0,1,13.2,53.74a9.8,9.8,0,0,0-.47-2.08,28.28,28.28,0,0,1-1-16.21,11.46,11.46,0,0,1,5.58-7.67,13.77,13.77,0,0,0,3.38-2.94l.66-.7a3.73,3.73,0,0,0,.26-.3A1.68,1.68,0,0,1,23,23H23a2.17,2.17,0,0,0,.24-.78c0-.72.07-1.44.09-2.17a32.62,32.62,0,0,1,.28-3.94c.66-4.35,3.18-6.55,7.47-6.55a15.61,15.61,0,0,1,2,.14,12.29,12.29,0,0,1,2.58.75l.59.22A4.52,4.52,0,0,1,39,13.13c.54,1.25,1,2.57,1.4,3.85l.44,1.29c.11.34.21.69.31,1a15,15,0,0,0,.54,1.6c.47,1.08.45,1.56-.53,2.32L41,23.3c-.21.37-.39.71-.56,1.06A21.15,21.15,0,0,0,39.34,27c-.43,1.29-.68,1.86-2.14,1.91-2.22.07-3.71,1.4-5.29,2.8l-.44.4c2.85,3,4,6.75,5.12,10.38.37,1.2.75,2.43,1.18,3.63l6.17-8.24c2.64-3.54,6.43-5.39,11.55-5.68l.68,0c.5,0,1,0,1.5,0l.67,0c.87,0,1.34.47,1.35,1.22a1.42,1.42,0,0,1-1.26,1.47c-.68.12-1.36.19-2,.26l-1.16.13c.45,1.41-.23,2.53-1,3.56a4.45,4.45,0,0,1-3.35,1.94,3.91,3.91,0,0,0-3.38,2.63A53.56,53.56,0,0,1,40,55a3.78,3.78,0,0,1-3,1.53,4.43,4.43,0,0,1-1.85-.44L34.87,56l.09.89a20.89,20.89,0,0,1,.18,2.59c0,1.06-.1,2.13-.17,3.17s-.15,2.25-.17,3.37a26.6,26.6,0,0,0,.29,5.32,16.4,16.4,0,0,1-.44,8.75C33.27,84.14,33,88.47,32.7,92.67l-.05.65c-.1,1.53-.23,1.65-1.76,1.65H21.57Zm1.54-1.8c0-.32-.05-.64-.07-1a18.3,18.3,0,0,0-.24-2.28c-.41-2.09-.85-4.17-1.29-6.26-.29-1.39-.59-2.78-.87-4.18-.61-3-1.07-5.69-.5-8.49a1.53,1.53,0,0,0-.66-1.71A18,18,0,0,0,19,77.19c.71,3.78,1.45,7.55,2.19,11.35l.9,4.63Zm7.78,0V93c0-.24,0-.46.06-.68l.3-2.72c.23-2.21.48-4.49.83-6.71A26.61,26.61,0,0,1,33,79.44c.2-.68.4-1.36.57-2a14,14,0,0,0-.17-5.77,19.33,19.33,0,0,1-.4-4.31H30.24a7.36,7.36,0,0,1-5.11,6.17,3.75,3.75,0,0,0-.93.41,1.4,1.4,0,0,1-.77.32c-.41,0-.64-.37-.83-.77s-.42-.87-.64-1.29l-.21-.42-.14,0c0,.5.05,1,.08,1.5,0,1.2.11,2.44.28,3.63.3,2.11.79,4.22,1.27,6.26a46.77,46.77,0,0,1,1.57,10ZM15.64,38.45a.79.79,0,0,1,.53.21c.32.26.24,1,.15,1.3s-.26.76-.4,1.13a9.18,9.18,0,0,0-.47,1.43,33.82,33.82,0,0,0,0,14.24c1.12,5.05,2.95,8.81,5.76,11.82.56.6,1.07,1.26,1.56,1.9.32.41.64.82,1,1.21a.77.77,0,0,0,.41.25,5.49,5.49,0,0,0,3.48-2.45,19.33,19.33,0,0,1-4.74-7.23c-1.77-4.58-2.43-9.74-2.1-16.27.06-1.27.21-2.62.46-4.37a1.24,1.24,0,0,1,.88-.9h.1a.67.67,0,0,1,.52.22,1.17,1.17,0,0,1,.19.91l0,.36c0,.51-.09,1-.15,1.54-.11,1.1-.22,2.24-.27,3.36-.23,6,.48,10.8,2.24,15.06.67,1.64.67,1.64,2.46,1.64h6l-.1-.19c-.17-.32-.31-.58-.43-.86l-.07-.14a3.36,3.36,0,0,1-.32-1L32,58.09c-.53-6.44-1.08-13.09-1.55-19.64A6,6,0,0,0,29,35.31l-.26-.37a.64.64,0,0,0-.13-.12.54.54,0,0,1-.26,0,1.28,1.28,0,0,1-1-.66l-.23-.28-6.18-6.26-1,.57c-.73.43-1.4.82-2.05,1.25A10.34,10.34,0,0,0,13.45,36,18.73,18.73,0,0,0,13,38.82a20.45,20.45,0,0,0,.3,6,5.79,5.79,0,0,1,.16-.91c.38-1.51.83-3,1.36-4.72A1,1,0,0,1,15.64,38.45Zm17.73.89,1.28,14.11a.93.93,0,0,0,.11.4,2.63,2.63,0,0,0,2,.92A2.2,2.2,0,0,0,38.51,54,51.61,51.61,0,0,0,46,42.62.9.9,0,0,0,46,42c-.31-.64-.66-1.27-1-1.92l-.27-.48,0,.07c-.13.15-.24.28-.34.42l-1.68,2.3c-1.41,1.94-2.82,3.88-4.25,5.81a1.61,1.61,0,0,1-1,.68c-.45-.06-.79-.61-.91-1-.34-1-.66-2-1-3.07s-.59-1.9-.9-2.85-.74-2.16-1.12-3.24l-.25-.7C33.29,38.5,33.34,38.92,33.37,39.34Zm18.93-5a11.26,11.26,0,0,0-6.09,3.52.76.76,0,0,0-.05.63c.24.52.52,1,.84,1.58l.27.48a5.52,5.52,0,0,1,3.49-1.53c1.25-.16,2.1-.91,2.76-2.45a1,1,0,0,0-.15-.69c-.22-.37-.47-.71-.76-1.11ZM28.55,32.72h0a2.61,2.61,0,0,1,.42-.6c1.28-1.32,1.28-1.32.07-2.7a19.1,19.1,0,0,0-5-3.72l-1.1-.64-1,1.22ZM25,24.25c2.3,1.38,4.68,2.8,6.26,5.23a3,3,0,0,0,.27-.23,11.31,11.31,0,0,1,1-.78,11.14,11.14,0,0,1,1.07-.63l.18-.1-.2-.09c-.38-.17-.72-.33-1-.5a3.27,3.27,0,0,1-1.7-4.23c.14-.46.33-1,.9-1A1.18,1.18,0,0,1,32,22c.82.25.61,1,.47,1.46-.32,1.13-.15,1.66.71,2.09,1.27.64,2.56,1.16,3.66,1.59a.89.89,0,0,0,.3.06c.08,0,.35,0,.45-.55a4.3,4.3,0,0,1,.5-1.24l.14-.29c.11-.22.24-.44.37-.66s.25-.43.36-.66c.24-.49.47-1,.7-1.51l.27-.62-.19-.53c-.18-.51-.38-1.07-.55-1.64s-.41-1.41-.6-2.12c-.25-.9-.5-1.79-.77-2.68-.14-.45-.71-.52-1-.52a3.21,3.21,0,0,0-.78.1c-.46.11-.51.35-.46.9a6.27,6.27,0,0,1-1,3.84,1.68,1.68,0,0,1-1.41,1,1.58,1.58,0,0,1-1.16-.58,2.56,2.56,0,0,0-1.88-1,2.29,2.29,0,0,0-2,1.7,7.56,7.56,0,0,0-.36,1.34c0,.16-.07.32-.1.48a1.57,1.57,0,0,1-1.55,1.41l-.21,0h-.22c-.54,0-.81.24-.95.84Z" />
    <path class='st0'
        d="M72.82,94.59c-.42,0-1.13,0-1.32-.87L71.08,92a21.57,21.57,0,0,1-1-7.59A28.3,28.3,0,0,0,69.68,77c-.15-1-.29-2-.4-3a2,2,0,0,0-.08-.4l0-.07a6,6,0,0,1-.82.06c-2,0-3.13-1.35-3.5-4.39a8.84,8.84,0,0,1,.6-4c1.41-3.83,2.91-7.56,4.73-12a14.52,14.52,0,0,1,3.45-5.42L72.79,46q-.27-.13-.54-.3a5.13,5.13,0,0,0-1.28-.6c-1.79-.42-2.08-1.85-2.33-3.12a.46.46,0,0,0-.23-.28,3,3,0,0,1-1.83-1.9,4.88,4.88,0,0,0-2.92-2.69A1.88,1.88,0,0,1,62.4,35.3,10.28,10.28,0,0,1,67,26.63a7.22,7.22,0,0,1,2.53-.91,16.6,16.6,0,0,1,2.31-.3l.6-.05a5.44,5.44,0,0,1,.57,0A5.85,5.85,0,0,1,77,27a11.7,11.7,0,0,1,3.31,5.3c.46,1.49.9,3,1.34,4.52l.55,1.89a3.47,3.47,0,0,0,.42,0l.23,0c.59,0,.82.43,1,.85l.06.16A11.6,11.6,0,0,0,85,42.24c.38.57.77,1.14,1.16,1.7a24.91,24.91,0,0,1,3.15,5.54,26.32,26.32,0,0,1,1.31,12.34c-.39,3.05-1,6.13-1.55,9.1-.26,1.34-.52,2.68-.76,4l-.07.36q-.55,3.09-1.1,6.2a3.26,3.26,0,0,0,0,1,32.71,32.71,0,0,1-.79,10.95A1.18,1.18,0,0,1,85,94.55h-1.1q-4.65,0-9.28,0Zm8.93-1.82a30.83,30.83,0,0,0,1.15-9.52H72c-.44,3,.24,5.82.9,8.59l.22.93Zm3,0A28.33,28.33,0,0,0,85.4,83H85l-1.21,9.72ZM72.78,81.49l1,0,1,0H75l7.77-.15,2.62,0s.08-.3.09-.37l.86-4.55c.64-3.39,1.28-6.78,2-10.16a35.25,35.25,0,0,0,.3-12.91A22.1,22.1,0,0,0,84,43.9c-.54-.72-.76-1-1-1a2.43,2.43,0,0,0-1,.47c-3.1,2-6.52,4.52-8.38,8.52-.62,1.32-1.15,2.71-1.66,4-.24.62-.48,1.24-.73,1.86l-.62,1.54.13-.2c.4-.66.82-1.35,1.18-2s.84-1.68,1.25-2.52S74,52.81,74.45,52a11,11,0,0,1,3.16-3.9.17.17,0,0,1,.12,0,.19.19,0,0,1,.15.07.2.2,0,0,1,0,.27c-2,2-3,4.61-4,7.09l-.42,1.05,6.13,3.3,2.74-2.93a.2.2,0,0,1,.15-.06.19.19,0,0,1,.12,0,.2.2,0,0,1,.05.26,13.38,13.38,0,0,1-1.05,1.47c-.29.36-.57.71-.82,1.09-1.17,1.8-2.32,3.66-3.42,5.46l-.64,1a20.46,20.46,0,0,1-5.52,6.49.85.85,0,0,0-.2.64c.15,1.2.31,2.41.47,3.61s.36,2.66.52,4c.05.47.19.6.65.6Zm-.19-23.11A18,18,0,0,1,68.27,64a5.08,5.08,0,0,0-.71.93l-.14.2a5.67,5.67,0,0,0-.34,5.73c.29.7.62,1,1.11,1h0a2.09,2.09,0,0,0,.61-.1,7.72,7.72,0,0,0,2.28-1.13,25.07,25.07,0,0,0,5.55-6.57c.57-.87,1.16-1.76,1.79-2.62A12.86,12.86,0,0,0,72.59,58.38Zm-3.76,3,0,0a2.79,2.79,0,0,0,.56-.82c.45-1.32.87-2.66,1.27-4ZM81.92,40.64a7.22,7.22,0,0,0-.78.35,25.93,25.93,0,0,0-6.06,5.13,1.05,1.05,0,0,0,0,.36c.55-.46,1.08-.92,1.61-1.38a18.28,18.28,0,0,1,5.7-3.85l-.2-.72ZM71.24,42.83a1.19,1.19,0,0,1,1.16,1,2.37,2.37,0,0,0,.36.13l.13,0,.87.26.36.11,5.53-4.7a13.51,13.51,0,0,1-4.89-5.34,2,2,0,0,0-1.56-.66,1.15,1.15,0,0,0-.46.08c-.63.33-.6.75-.29,1.56q.22.63.42,1.29l.19.59a.17.17,0,0,1,0,.17.19.19,0,0,1-.15.09h-.26a2.82,2.82,0,0,1-2.34-1.29l-.39-.51a9.87,9.87,0,0,0-1-1.17,1.45,1.45,0,0,0-1-.5,1.33,1.33,0,0,0-1,.64c-.3.39-.57.8-.87,1.24l-.3.46a5.59,5.59,0,0,1,2.61,3.26l1.66-1.38a.17.17,0,0,1,.12,0h.09l.3.14a.19.19,0,0,1,.11.22l-.09.43c-.3,1.37-.58,2.68.16,3.95A2.06,2.06,0,0,1,71.24,42.83Z" />
    <path class='st0'
        d="M42.75,27c1.42.49,2.74.92,4,1.43.17.06.32.55.24.76a.78.78,0,0,1-.68.4c-1.3-.38-2.59-.81-3.86-1.29a.84.84,0,0,1-.3-.74C42.23,27.3,42.56,27.14,42.75,27Z" />
    <path class='st0'
        d="M42.69,33.63c-.16-.14-.43-.27-.54-.48-.58-1.1-1.15-2.2-1.65-3.33-.1-.24.13-.63.2-.95.33.12.83.15,1,.38.62,1.07,1.15,2.19,1.67,3.32C43.57,33.09,43.32,33.43,42.69,33.63Z" />
    <line x1="60.98" y1="7.73" x2="48.55" y2="20.17" />
    <rect x="45.97" y="13.48" width="17.59" height="0.94" class='st0' transform="translate(6.17 42.81) rotate(-45)" />
    <line x1="60.98" y1="20.17" x2="48.55" y2="7.73" />
    <rect x="54.3" y="5.16" width="0.94" height="17.59" class='st0' transform="translate(6.17 42.81) rotate(-45)" /></svg>