<svg id="Layer_1" data-name="Layer 1" xmlns="http://www.w3.org/2000/svg" viewBox="0 0 100 100">
<style type="text/css">
	.st0{fill:#fff;}
</style>
    <path class='st0'
        d="M72.18,59.35l1.51,1.44a2.91,2.91,0,0,0,1.54-2.89c-.08-.67,0-1.36,0-2a4.54,4.54,0,0,1,7.43-4l1.24-1.18a4.46,4.46,0,0,1,6.49,0c1,1,2.08,2,3.09,3.1a4.43,4.43,0,0,1,0,6.42c-1.44,1.49-2.92,3-4.4,4.41a4.25,4.25,0,0,1-3.18,1.29,2.36,2.36,0,0,0-1.89.79c-.69.72-1.43,1.38-2.22,2.13l1.48,1.56c-.27.28-.49.53-.73.77-3.92,3.93-7.72,8-11.82,11.72-2.27,2.07-3.38,4.23-3,7.27a29.87,29.87,0,0,1,0,4H64.85c0-.26-.06-.53-.06-.79,0-2.14,0-4.28,0-6.42a5.1,5.1,0,0,1,1.61-3.91c4-3.95,7.94-7.93,11.92-11.9.22-.22.46-.4.66-.57l-6.92-6.79c-.09.08-.34.3-.57.54-3.44,3.44-6.9,6.87-10.32,10.34a5.32,5.32,0,0,1-4.06,1.69c-4.84,0-9.68,0-14.52,0a5.1,5.1,0,0,1-3.82-1.59c-3.45-3.48-6.92-6.93-10.38-10.4a8.52,8.52,0,0,1-.58-.69l-6.87,6.86c.09.09.3.34.53.57,4,4,7.93,8,11.92,11.9A5.2,5.2,0,0,1,35,87c-.05,2.38,0,4.76,0,7.18H32.09c0-.27-.05-.53-.05-.8,0-2.11,0-4.22,0-6.33a2.51,2.51,0,0,0-.83-2q-6.91-6.89-13.82-13.8c-.26-.26-.56-.5-.89-.79L18,68.86c-.9-.87-1.73-1.74-2.65-2.52A2.12,2.12,0,0,0,14.09,66a4.82,4.82,0,0,1-3.49-1.49c-1.4-1.41-2.82-2.79-4.21-4.21a4.46,4.46,0,0,1,0-6.56c1-1,1.93-1.94,2.9-2.89a4.47,4.47,0,0,1,6.69,0c.35.35.65.75.83,1a16,16,0,0,1,3.09-.88,4.33,4.33,0,0,1,4.64,4.28,17.52,17.52,0,0,1,0,2.51,3,3,0,0,0,1.55,3.12l1.41-1.34,13,13a19.87,19.87,0,0,1,1.16-2.23,11.8,11.8,0,0,1,1.71-2c.38-.34.5-.62.28-1a11.54,11.54,0,0,0-1.48-2.33,14.68,14.68,0,0,1-3.59-5.35,1.53,1.53,0,0,0-.77-.71,27.88,27.88,0,0,1-15.7-20.33C19.16,23.86,28.86,9,43.38,5.66a28.08,28.08,0,0,1,19,2.17.77.77,0,0,0,1.15-.21A7.32,7.32,0,0,1,69.41,4.9H89.88a4.44,4.44,0,0,1,4.68,4.67q0,11.72,0,23.44a4.43,4.43,0,0,1-4.62,4.63c-4,0-8,0-11.92,0-.63,2-1.11,4.05-1.87,6A27.66,27.66,0,0,1,62.1,58.69,1.89,1.89,0,0,0,61,59.86a13.56,13.56,0,0,1-3.18,4.75,13.91,13.91,0,0,0-1.71,2.6.83.83,0,0,0,.11.79c1.32.78,1.86,2.11,2.5,3.39.15.3.31.59.49.93ZM68.73,50.1a25.36,25.36,0,0,0,6.08-12.44H73.74c-5.21,0-10.42,0-15.63,0a1.85,1.85,0,0,1-1.87-1,1.78,1.78,0,0,1,.4-2c1.5-1.86,3-3.74,4.48-5.59a3,3,0,0,0,.71-2c0-5.24,0-10.48,0-15.72a.77.77,0,0,0-.3-.57A24.56,24.56,0,0,0,51.38,8v4.34h-3V7.93A25.38,25.38,0,0,0,33,14.37l3,2.68-2.18,2.39-2.76-3C27.48,20,24.51,27.2,24.73,31.73H29v3H24.64a25.46,25.46,0,0,0,6.5,15.49l2.82-3,2.14,2-3.22,2.92L38,55.66c0-2.37,0-4.42,0-6.46a11.91,11.91,0,0,1,23.81.42c0,1.91,0,3.82,0,6.05L67,52.05l-3.1-2.91,2-2.12ZM60.45,34.68H89.6c1.51,0,2-.48,2-2V9.88c0-1.52-.48-2-2-2h-20a4.48,4.48,0,0,0-4.8,4.84c0,4.84,0,9.68,0,14.51a5.34,5.34,0,0,1-1.26,3.6C62.54,32,61.57,33.28,60.45,34.68ZM53,67.4a9.15,9.15,0,0,1,2.86-5.08,8.58,8.58,0,0,0,2.92-6c.1-2.45.11-4.91,0-7.35a8.91,8.91,0,0,0-8.32-8.29A8.75,8.75,0,0,0,41.18,48,63.11,63.11,0,0,0,41,55.42a8.72,8.72,0,0,0,2.74,6.67A9.79,9.79,0,0,1,46.8,67.4Zm26.79-.59L82,64.51a4.93,4.93,0,0,1,3.64-1.57,2.44,2.44,0,0,0,1.48-.6c1.42-1.33,2.78-2.73,4.15-4.13a1.51,1.51,0,0,0,0-2.42c-.86-.89-1.74-1.76-2.62-2.64-1.17-1.16-1.79-1.15-3,0-.2.19-.38.41-.59.58a1.77,1.77,0,0,0-.7,1.68,4.52,4.52,0,0,1-2,4l-2.16-1.94c.35-.38.82-.67.93-1.07a2.64,2.64,0,0,0,0-1.71,1.46,1.46,0,0,0-1.88-.8,1.39,1.39,0,0,0-1,1.4,12.92,12.92,0,0,0,0,1.76,6.14,6.14,0,0,1-2.2,5.8S76,63,76,63ZM17.57,59.49c-1.26-1.05-2.21-2.23-2.11-3.89a2.12,2.12,0,0,0-.84-2c-.29-.23-.52-.53-.79-.78a1.49,1.49,0,0,0-2.3,0c-1,1-2,2-3,3a1.5,1.5,0,0,0,0,2.42c1.37,1.4,2.73,2.79,4.15,4.13a2.23,2.23,0,0,0,1.38.59A5.1,5.1,0,0,1,18,64.65c.69.73,1.42,1.43,2,2l3.85-3.81a5.75,5.75,0,0,0-.44-.46,5,5,0,0,1-1.75-4.22,12.91,12.91,0,0,0,0-2.78,2.24,2.24,0,0,0-.93-1.43c-.74-.41-1.44,0-1.92.67a1.43,1.43,0,0,0,0,1.88c.26.34.58.63.89,1ZM43.4,73.34h13a15,15,0,0,0-1.15-2.19,1.88,1.88,0,0,0-1.3-.7q-4-.11-8.09,0a1.91,1.91,0,0,0-1.3.69A15.58,15.58,0,0,0,43.4,73.34Z" />
    <path class='st0' d="M48.38,15.37h3V34.61H35.07V31.73H48.38Z" />
    <path class='st0'
        d="M84.11,16.78H81.27c-.59-2.13-1.78-3.13-3.44-2.92s-2.62,1.5-2.62,3.76v2.13c.34,0,.64,0,.94,0,2.14,0,4.27,0,6.41,0a3,3,0,0,1,3.07,3c0,2,0,3.91,0,5.86a3,3,0,0,1-3,3q-4.42,0-8.84,0a3,3,0,0,1-3-3c0-2,0-3.91,0-5.86a3.26,3.26,0,0,1,1-2.32,1.91,1.91,0,0,0,.46-1.1,34.34,34.34,0,0,1,.24-4.07,5.87,5.87,0,0,1,6.42-4.46A5.94,5.94,0,0,1,84.11,16.78Zm-10.32,6v5.84h8.82V22.81Z" />
    </svg>